<svg width="238" height="144" fill="none" xmlns="http://www.w3.org/2000/svg"><g clip-path="url(#clip0_0_379)"><g filter="url(#filter0_d_0_379)"><path d="M0 80c0-28.003 0-42.004 5.45-52.7A50 50 0 0127.3 5.45C37.996 0 51.998 0 80 0h132.4c8.961 0 13.441 0 16.864 1.744a16.003 16.003 0 016.992 6.992C238 12.16 238 16.64 238 25.6v92.8c0 8.961 0 13.441-1.744 16.864a16.005 16.005 0 01-6.992 6.992C225.841 144 221.361 144 212.4 144H25.6c-8.96 0-13.441 0-16.864-1.744a16.003 16.003 0 01-6.992-6.992C0 131.841 0 127.361 0 118.4V80z" fill="#fff"/></g><path d="M36.632 81.24c-.72 0-1.357-.144-1.912-.432a3.254 3.254 0 01-1.296-1.208c-.31-.523-.464-1.133-.464-1.832 0-.715.173-1.35.52-1.904.347-.56.875-.984 1.584-1.272l-.016.464c-.592-.219-1.043-.576-1.352-1.072a3.052 3.052 0 01-.464-1.648c0-.64.147-1.19.44-1.648a2.921 2.921 0 011.2-1.072c.512-.25 1.099-.376 1.76-.376s1.248.125 1.76.376c.512.25.915.608 1.208 1.072.293.459.44 1.008.44 1.648 0 .603-.15 1.15-.448 1.64-.293.49-.744.85-1.352 1.08l-.04-.464c.71.283 1.24.704 1.592 1.264.357.56.536 1.197.536 1.912 0 .699-.157 1.31-.472 1.832a3.24 3.24 0 01-1.304 1.208c-.555.288-1.195.432-1.92.432zm0-1.128c.725 0 1.315-.2 1.768-.6.453-.405.68-.987.68-1.744 0-.768-.224-1.35-.672-1.744-.448-.4-1.04-.6-1.776-.6s-1.325.2-1.768.6c-.443.395-.664.976-.664 1.744 0 .757.224 1.339.672 1.744.448.4 1.035.6 1.76.6zm0-5.824c.64 0 1.16-.163 1.56-.488.4-.33.6-.819.6-1.464s-.2-1.128-.6-1.448c-.4-.325-.92-.488-1.56-.488s-1.16.163-1.56.488c-.395.32-.592.803-.592 1.448 0 .645.197 1.133.592 1.464.4.325.92.488 1.56.488zM44.409 81V70.792l-2.168 1.304v-1.32l2.168-1.296h1.192V81H44.41zm7.739.24c-.72 0-1.358-.144-1.912-.432A3.254 3.254 0 0148.94 79.6c-.31-.523-.464-1.133-.464-1.832 0-.715.173-1.35.52-1.904.346-.56.874-.984 1.584-1.272l-.016.464c-.592-.219-1.043-.576-1.352-1.072a3.052 3.052 0 01-.464-1.648c0-.64.146-1.19.44-1.648a2.923 2.923 0 011.2-1.072c.512-.25 1.098-.376 1.76-.376.661 0 1.248.125 1.76.376.512.25.914.608 1.208 1.072.293.459.44 1.008.44 1.648 0 .603-.15 1.15-.448 1.64-.294.49-.744.85-1.352 1.08l-.04-.464c.709.283 1.24.704 1.592 1.264.357.56.536 1.197.536 1.912 0 .699-.158 1.31-.472 1.832a3.24 3.24 0 01-1.304 1.208c-.555.288-1.195.432-1.92.432zm0-1.128c.725 0 1.314-.2 1.768-.6.453-.405.68-.987.68-1.744 0-.768-.224-1.35-.672-1.744-.448-.4-1.04-.6-1.776-.6s-1.326.2-1.768.6c-.443.395-.664.976-.664 1.744 0 .757.224 1.339.672 1.744.448.4 1.034.6 1.76.6zm0-5.824c.64 0 1.16-.163 1.56-.488.4-.33.6-.819.6-1.464s-.2-1.128-.6-1.448c-.4-.325-.92-.488-1.56-.488s-1.16.163-1.56.488c-.395.32-.592.803-.592 1.448 0 .645.197 1.133.592 1.464.4.325.92.488 1.56.488zm9.665 6.952a3.82 3.82 0 01-1.968-.52 4.003 4.003 0 01-1.408-1.424c-.347-.603-.52-1.28-.52-2.032v-3.992c0-.773.173-1.461.52-2.064a3.802 3.802 0 011.416-1.432c.602-.352 1.285-.528 2.048-.528a3.93 3.93 0 011.824.432c.565.288 1.026.69 1.384 1.208l-.904.744a2.74 2.74 0 00-.976-.92 2.651 2.651 0 00-1.328-.344c-.539 0-1.019.13-1.44.392a2.83 2.83 0 00-.992 1.032c-.24.421-.36.88-.36 1.376v2.512l-.296-.336a3.936 3.936 0 011.32-1.28 3.454 3.454 0 011.792-.488c.715 0 1.357.17 1.928.512a3.759 3.759 0 011.864 3.304c0 .71-.179 1.355-.536 1.936a3.98 3.98 0 01-1.416 1.392 3.765 3.765 0 01-1.952.52zm0-1.144c.501 0 .957-.12 1.368-.36.416-.24.744-.565.984-.976.245-.41.368-.867.368-1.368 0-.501-.123-.957-.368-1.368a2.659 2.659 0 00-.976-.984 2.617 2.617 0 00-1.368-.368c-.502 0-.957.123-1.368.368a2.72 2.72 0 00-.984.984c-.24.41-.36.867-.36 1.368 0 .496.12.95.36 1.36a2.661 2.661 0 002.344 1.344zm11.7.904l-3.327-11.52h1.224l2.696 9.512 2.68-9.504 1.232-.008 2.696 9.512 2.68-9.512h1.232L81.306 81h-1.184l-2.72-9.448L74.698 81h-1.184zm11.768 0v-1.368h1.368V81h-1.368zm7.042 0V69.48h4.448c.645 0 1.208.133 1.688.4s.853.627 1.12 1.08c.267.448.4.944.4 1.488a2.87 2.87 0 01-.496 1.656c-.33.48-.773.813-1.328 1l-.016-.392c.747.213 1.334.587 1.76 1.12.427.533.64 1.179.64 1.936 0 .667-.141 1.243-.424 1.728-.282.48-.68.85-1.192 1.112-.512.261-1.106.392-1.784.392h-4.816zm1.184-1.128h3.344c.47 0 .89-.083 1.264-.248.374-.17.667-.41.88-.72.219-.31.328-.683.328-1.12a2.236 2.236 0 00-1.104-1.968 2.143 2.143 0 00-1.152-.312h-3.56v4.368zm0-5.48h3.256c.368 0 .704-.083 1.008-.248a1.92 1.92 0 00.992-1.712c0-.544-.19-.987-.568-1.328-.373-.341-.85-.512-1.432-.512h-3.256v3.8zm11.101 6.848c-.651 0-1.198-.117-1.64-.352-.438-.235-.766-.547-.984-.936a2.55 2.55 0 01-.328-1.272c0-.47.093-.87.28-1.2.192-.336.45-.61.776-.824a3.9 3.9 0 011.144-.488c.437-.107.92-.2 1.448-.28a36.286 36.286 0 011.56-.216 50.4 50.4 0 001.344-.184l-.416.256c.016-.853-.15-1.485-.496-1.896-.347-.41-.95-.616-1.808-.616-.592 0-1.094.133-1.504.4-.406.267-.691.688-.856 1.264l-1.144-.336c.197-.773.594-1.373 1.192-1.8.597-.427 1.373-.64 2.328-.64.789 0 1.458.15 2.008.448.554.293.946.72 1.176 1.28.106.25.176.53.208.84.032.31.048.624.048.944V81h-1.048v-2.168l.304.128c-.294.741-.75 1.307-1.368 1.696-.619.39-1.36.584-2.224.584zm.136-1.016c.549 0 1.029-.099 1.44-.296.41-.197.741-.467.992-.808.25-.347.413-.736.488-1.168.064-.277.098-.581.104-.912.005-.336.008-.587.008-.752l.448.232c-.4.053-.835.107-1.304.16a37.1 37.1 0 00-1.376.184c-.448.07-.854.152-1.216.248a3.31 3.31 0 00-.712.296c-.23.123-.419.288-.568.496-.144.208-.216.467-.216.776 0 .25.061.493.184.728.128.235.33.43.608.584.282.155.656.232 1.12.232zm7.03 4.616l1.672-4.536.024 1.344-3.784-9.288h1.248l3.104 7.768h-.512l2.864-7.768h1.2l-4.64 12.48h-1.176zm11.085-3.6c-.794 0-1.466-.2-2.016-.6-.549-.405-.965-.952-1.248-1.64-.282-.693-.424-1.47-.424-2.328 0-.875.142-1.653.424-2.336.288-.688.71-1.23 1.264-1.624.555-.395 1.238-.592 2.048-.592.79 0 1.467.2 2.032.6.566.4.998.944 1.296 1.632.304.688.456 1.461.456 2.32 0 .864-.152 1.64-.456 2.328-.304.688-.741 1.235-1.312 1.64-.57.4-1.258.6-2.064.6zm-3.888 3.6V72.36h1.056v6.504h.128v5.976h-1.184zm3.768-4.696c.603 0 1.104-.152 1.504-.456.4-.304.699-.717.896-1.24.203-.528.304-1.12.304-1.776 0-.65-.098-1.237-.296-1.76-.197-.523-.498-.936-.904-1.24-.4-.304-.909-.456-1.528-.456-.602 0-1.104.147-1.504.44-.394.293-.69.701-.888 1.224-.197.517-.296 1.115-.296 1.792 0 .667.099 1.264.296 1.792.198.523.496.933.896 1.232.4.299.907.448 1.52.448zm9.317 1.096c-.859 0-1.592-.195-2.2-.584a3.797 3.797 0 01-1.4-1.616c-.325-.688-.488-1.477-.488-2.368 0-.907.165-1.701.496-2.384.331-.683.8-1.213 1.408-1.592.613-.384 1.341-.576 2.184-.576.864 0 1.6.195 2.208.584a3.68 3.68 0 011.4 1.608c.325.683.488 1.47.488 2.36 0 .907-.163 1.704-.488 2.392a3.739 3.739 0 01-1.408 1.6c-.613.384-1.347.576-2.2.576zm0-1.128c.96 0 1.675-.317 2.144-.952.469-.64.704-1.47.704-2.488 0-1.045-.237-1.877-.712-2.496-.469-.619-1.181-.928-2.136-.928-.645 0-1.179.147-1.6.44-.416.288-.728.69-.936 1.208-.203.512-.304 1.104-.304 1.776 0 1.04.24 1.875.72 2.504.48.624 1.187.936 2.12.936zm5.861.888v-8.64h1.056v2.08l-.208-.272a2.97 2.97 0 01.376-.704c.155-.219.323-.397.504-.536.224-.197.485-.347.784-.448.299-.107.6-.168.904-.184.304-.021.581 0 .832.064v1.104a2.853 2.853 0 00-1.032-.056 1.969 1.969 0 00-1.032.448 2.146 2.146 0 00-.648.808c-.144.31-.24.64-.288.992-.048.347-.072.69-.072 1.032V81h-1.176zm10.47 0a5.765 5.765 0 01-1.44.12 3.19 3.19 0 01-1.264-.304 1.824 1.824 0 01-.84-.848 2.486 2.486 0 01-.256-.968c-.011-.33-.016-.707-.016-1.128V69.96h1.168v7.864c0 .363.002.667.008.912.01.24.066.453.168.64.192.357.496.57.912.64.421.07.941.053 1.56-.048V81zm-5.664-7.632V72.36h5.664v1.008h-5.664zm14.569 7.872c-.805 0-1.531-.133-2.176-.4a4.211 4.211 0 01-1.592-1.152 3.783 3.783 0 01-.816-1.768l1.2-.2a2.96 2.96 0 001.216 1.76c.619.421 1.357.632 2.216.632.565 0 1.072-.088 1.52-.264.448-.181.8-.437 1.056-.768.256-.33.384-.723.384-1.176 0-.299-.053-.552-.16-.76a1.54 1.54 0 00-.424-.528 2.615 2.615 0 00-.576-.344 4.567 4.567 0 00-.608-.232l-2.92-.872a5.317 5.317 0 01-.976-.384 3.45 3.45 0 01-.784-.568 2.434 2.434 0 01-.512-.784 2.67 2.67 0 01-.184-1.024c0-.65.171-1.213.512-1.688.341-.475.808-.84 1.4-1.096.592-.256 1.267-.381 2.024-.376.768 0 1.453.136 2.056.408a3.884 3.884 0 011.504 1.168c.395.501.656 1.096.784 1.784l-1.232.224a2.79 2.79 0 00-.552-1.304 2.818 2.818 0 00-1.104-.848 3.564 3.564 0 00-1.464-.312c-.517 0-.979.088-1.384.264-.4.17-.717.405-.952.704a1.61 1.61 0 00-.352 1.024c0 .39.107.701.32.936a2.3 2.3 0 00.8.552c.32.133.629.243.928.328l2.256.664c.235.064.509.157.824.28.32.117.629.288.928.512.304.219.555.507.752.864.197.357.296.81.296 1.36a3.13 3.13 0 01-.32 1.432 2.944 2.944 0 01-.888 1.064 4.063 4.063 0 01-1.336.656 5.677 5.677 0 01-1.664.232zm10.563-.24a5.758 5.758 0 01-1.44.12 3.2 3.2 0 01-1.264-.304 1.824 1.824 0 01-.84-.848 2.504 2.504 0 01-.256-.968 37.46 37.46 0 01-.016-1.128V69.96h1.168v7.864c0 .363.003.667.008.912.011.24.067.453.168.64.192.357.496.57.912.64.422.07.942.053 1.56-.048V81zm-5.664-7.632V72.36h5.664v1.008h-5.664zM169.782 81v-1.368h1.368V81h-1.368zM33.12 113v-11.52h4.448c.112 0 .237.005.376.016.144.005.288.021.432.048.603.091 1.112.301 1.528.632.421.325.739.736.952 1.232a4.04 4.04 0 01.328 1.648c0 .597-.11 1.144-.328 1.64a3.187 3.187 0 01-.96 1.24c-.416.325-.923.533-1.52.624a6.338 6.338 0 01-.808.064h-3.272V113H33.12zm1.176-5.496h3.24c.096 0 .208-.005.336-.016.128-.011.253-.029.376-.056.395-.085.717-.248.968-.488a2.21 2.21 0 00.568-.856c.128-.331.192-.675.192-1.032s-.064-.701-.192-1.032a2.202 2.202 0 00-.568-.864c-.25-.24-.573-.403-.968-.488a2.133 2.133 0 00-.376-.048 3.966 3.966 0 00-.336-.016h-3.24v4.896zM49.016 113v-4.408c0-.48-.045-.92-.136-1.32a3.051 3.051 0 00-.44-1.056 2.01 2.01 0 00-.776-.704c-.314-.165-.698-.248-1.152-.248-.416 0-.784.072-1.104.216a2.174 2.174 0 00-.8.624 2.797 2.797 0 00-.488.976 4.688 4.688 0 00-.168 1.312l-.832-.184c0-.885.155-1.629.464-2.232.31-.603.736-1.059 1.28-1.368.544-.309 1.168-.464 1.872-.464.518 0 .968.08 1.352.24.39.16.718.376.984.648.272.272.49.584.656.936.166.347.286.717.36 1.112.075.389.112.779.112 1.168V113h-1.184zm-6.248 0v-11.52h1.064v6.504h.12V113h-1.184zm9.668-10.28v-1.32h1.176v1.32h-1.176zm0 10.28v-8.64h1.176V113h-1.176zm3.735 0v-11.76h1.176V113H56.17zm3.734 0v-11.76h1.176V113h-1.176zm3.734-10.28v-1.32h1.176v1.32H63.64zm0 10.28v-8.64h1.176V113H63.64zm7.455.24c-.795 0-1.467-.2-2.016-.6-.55-.405-.966-.952-1.248-1.64-.283-.693-.424-1.469-.424-2.328 0-.875.141-1.653.424-2.336.288-.688.71-1.229 1.264-1.624s1.237-.592 2.048-.592c.79 0 1.466.2 2.032.6.565.4.997.944 1.296 1.632.304.688.456 1.461.456 2.32 0 .864-.152 1.64-.456 2.328-.304.688-.742 1.235-1.312 1.64-.57.4-1.259.6-2.064.6zm-3.888 3.6v-12.48h1.056v6.504h.128v5.976h-1.184zm3.768-4.696c.602 0 1.104-.152 1.504-.456.4-.304.698-.717.896-1.24.202-.528.304-1.12.304-1.776a4.96 4.96 0 00-.296-1.76c-.198-.523-.499-.936-.904-1.24-.4-.304-.91-.456-1.528-.456-.603 0-1.104.147-1.504.44-.395.293-.69.701-.888 1.224-.198.517-.296 1.115-.296 1.792 0 .667.098 1.264.296 1.792.197.523.496.933.896 1.232.4.299.906.448 1.52.448zm8.854 1.088c-1.013 0-1.848-.219-2.504-.656a2.732 2.732 0 01-1.2-1.824l1.2-.2c.128.491.419.883.872 1.176.459.288 1.024.432 1.696.432.656 0 1.174-.136 1.552-.408.379-.277.568-.653.568-1.128 0-.267-.061-.483-.184-.648-.117-.171-.36-.328-.728-.472-.368-.144-.917-.315-1.648-.512-.784-.213-1.397-.427-1.84-.64-.442-.213-.757-.459-.944-.736-.186-.283-.28-.627-.28-1.032 0-.491.139-.92.416-1.288.278-.373.662-.661 1.152-.864.491-.208 1.062-.312 1.712-.312.651 0 1.232.107 1.744.32.518.208.934.501 1.248.88.315.379.502.819.56 1.32l-1.2.216a1.727 1.727 0 00-.76-1.2c-.421-.299-.957-.453-1.608-.464-.613-.016-1.112.101-1.496.352-.384.245-.576.573-.576.984 0 .229.07.427.208.592.139.16.39.312.752.456.368.144.891.301 1.568.472.795.203 1.419.416 1.872.64.454.224.776.488.968.792.192.304.288.68.288 1.128 0 .816-.304 1.459-.912 1.928-.602.464-1.434.696-2.496.696zm9.063.008c-.795 0-1.467-.2-2.016-.6-.55-.405-.966-.952-1.248-1.64-.283-.693-.424-1.469-.424-2.328 0-.875.141-1.653.424-2.336.288-.688.709-1.229 1.264-1.624.554-.395 1.237-.592 2.048-.592.789 0 1.466.2 2.032.6.565.4.997.944 1.296 1.632.304.688.456 1.461.456 2.32 0 .864-.152 1.64-.456 2.328-.304.688-.742 1.235-1.312 1.64-.571.4-1.259.6-2.064.6zm-3.888-.24v-11.52h1.184v5.016h-.128V113h-1.056zm3.768-.856c.602 0 1.104-.152 1.504-.456.4-.304.698-.717.896-1.24.202-.528.304-1.12.304-1.776a4.96 4.96 0 00-.296-1.76c-.198-.523-.499-.936-.904-1.24-.4-.304-.91-.456-1.528-.456-.603 0-1.104.147-1.504.44-.395.293-.691.701-.888 1.224-.198.517-.296 1.115-.296 1.792 0 .667.098 1.264.296 1.792.197.523.496.933.896 1.232.4.299.906.448 1.52.448zm9.012 1.072c-.517 0-.97-.08-1.36-.24a3.01 3.01 0 01-.984-.648 3.41 3.41 0 01-.648-.928 4.675 4.675 0 01-.36-1.112 6.317 6.317 0 01-.112-1.176v-4.752h1.184v4.408c0 .475.046.915.136 1.32.091.405.235.76.432 1.064.203.299.462.531.776.696.32.165.707.248 1.16.248a2.61 2.61 0 001.096-.216c.32-.144.587-.349.8-.616.219-.272.384-.6.496-.984.112-.389.168-.827.168-1.312l.832.184c0 .885-.154 1.629-.464 2.232-.309.603-.736 1.059-1.28 1.368-.544.309-1.168.464-1.872.464zm2.904-.216v-2.128h-.12v-6.512h1.176V113h-1.056zm3.292 0v-8.64h1.056v2.08l-.208-.272c.096-.256.222-.491.376-.704.155-.219.323-.397.504-.536.224-.197.486-.347.784-.448.299-.107.6-.168.904-.184.304-.021.582 0 .832.064v1.104a2.844 2.844 0 00-1.032-.056 1.971 1.971 0 00-1.032.448 2.144 2.144 0 00-.648.808c-.144.309-.24.64-.288.992a7.524 7.524 0 00-.072 1.032V113h-1.176zm8.886 4.08c-.443 0-.88-.067-1.312-.2a3.59 3.59 0 01-1.185-.616 3.4 3.4 0 01-.911-1.088l1.064-.592c.24.48.576.824 1.008 1.032.437.213.882.32 1.336.32.624 0 1.128-.117 1.512-.352.389-.229.672-.571.848-1.024.176-.453.261-1.019.256-1.696v-2.304h.136v-6.2h1.048v8.52c0 .245-.008.48-.024.704a5.661 5.661 0 01-.072.672c-.102.645-.312 1.176-.632 1.592a2.82 2.82 0 01-1.248.928c-.512.203-1.12.304-1.824.304zm-.08-3.84c-.806 0-1.494-.2-2.064-.6-.571-.405-1.008-.952-1.312-1.64-.304-.688-.456-1.464-.456-2.328 0-.859.149-1.632.448-2.32.304-.688.738-1.232 1.304-1.632.565-.4 1.242-.6 2.032-.6.81 0 1.493.197 2.048.592.554.395.973.936 1.256 1.624.288.683.432 1.461.432 2.336 0 .859-.142 1.635-.424 2.328-.283.688-.699 1.235-1.248 1.64-.55.4-1.222.6-2.016.6zm.12-1.096c.613 0 1.12-.149 1.52-.448.4-.299.698-.709.896-1.232.197-.528.296-1.125.296-1.792 0-.677-.099-1.275-.296-1.792-.198-.523-.496-.931-.896-1.224-.395-.293-.894-.44-1.496-.44-.619 0-1.131.152-1.536.456-.406.304-.707.717-.904 1.24a5.076 5.076 0 00-.288 1.76c0 .656.098 1.248.296 1.776.202.523.504.936.904 1.24.4.304.901.456 1.504.456zm5.836 2.528l.072-.584c.214.016.368-.027.464-.128a.697.697 0 00.176-.408c.022-.171.027-.355.016-.552h-.728v-1.688h1.368v2.008c0 .491-.125.859-.376 1.104-.245.245-.576.328-.992.248zm7.613-1.672v-11.52h1.184l6.344 9.44v-9.44h1.184V113h-1.184l-6.344-9.448V113h-1.184zm12.922.232c-.768 0-1.427-.213-1.976-.64-.55-.427-.92-.997-1.112-1.712l1.175-.28c.097.421.318.779.665 1.072.352.288.765.432 1.24.432.298 0 .6-.072.904-.216.309-.144.552-.381.728-.712.117-.229.184-.477.2-.744.021-.272.032-.597.032-.976v-7.976h1.184v7.976c0 .32-.003.611-.008.872a3.862 3.862 0 01-.088.744 2.394 2.394 0 01-.28.712 2.689 2.689 0 01-1.12 1.088c-.464.24-.979.36-1.544.36zm12.417.008c-.71 0-1.35-.165-1.92-.496a3.686 3.686 0 01-1.344-1.344 3.758 3.758 0 01-.496-1.92V105c0-.709.165-1.347.496-1.912a3.662 3.662 0 011.344-1.352 3.752 3.752 0 011.92-.496c.709 0 1.346.165 1.912.496.57.331 1.021.781 1.352 1.352.33.565.496 1.203.496 1.912v4.48c0 .709-.166 1.349-.496 1.92a3.685 3.685 0 01-1.352 1.344c-.566.331-1.203.496-1.912.496zm0-1.136c.474 0 .906-.115 1.296-.344.389-.235.698-.547.928-.936.229-.389.344-.819.344-1.288v-4.592c0-.475-.115-.907-.344-1.296a2.588 2.588 0 00-.928-.928 2.463 2.463 0 00-1.296-.352c-.475 0-.907.117-1.296.352-.39.229-.699.539-.928.928-.23.389-.344.821-.344 1.296v4.592c0 .469.114.899.344 1.288.229.389.538.701.928.936.389.229.821.344 1.296.344zm9.517 1.136c-.72 0-1.357-.144-1.912-.432a3.26 3.26 0 01-1.296-1.208c-.309-.523-.464-1.133-.464-1.832 0-.715.173-1.349.52-1.904.347-.56.875-.984 1.584-1.272l-.016.464c-.592-.219-1.043-.576-1.352-1.072a3.054 3.054 0 01-.464-1.648c0-.64.147-1.189.44-1.648a2.92 2.92 0 011.2-1.072c.512-.251 1.099-.376 1.76-.376s1.248.125 1.76.376a2.91 2.91 0 011.208 1.072c.293.459.44 1.008.44 1.648a3.09 3.09 0 01-.448 1.64c-.293.491-.744.851-1.352 1.08l-.04-.464c.709.283 1.24.704 1.592 1.264.357.56.536 1.197.536 1.912 0 .699-.157 1.309-.472 1.832-.315.517-.749.92-1.304 1.208-.555.288-1.195.432-1.92.432zm0-1.128c.725 0 1.315-.2 1.768-.6.453-.405.68-.987.68-1.744 0-.768-.224-1.349-.672-1.744-.448-.4-1.04-.6-1.776-.6s-1.325.2-1.768.6c-.443.395-.664.976-.664 1.744 0 .757.224 1.339.672 1.744.448.4 1.035.6 1.76.6zm0-5.824c.64 0 1.16-.163 1.56-.488.4-.331.6-.819.6-1.464s-.2-1.128-.6-1.448c-.4-.325-.92-.488-1.56-.488s-1.16.163-1.56.488c-.395.32-.592.803-.592 1.448 0 .645.197 1.133.592 1.464.4.325.92.488 1.56.488zm9.281 6.952c-.72 0-1.357-.144-1.912-.432a3.26 3.26 0 01-1.296-1.208c-.309-.523-.464-1.133-.464-1.832 0-.715.174-1.349.52-1.904.347-.56.875-.984 1.584-1.272l-.016.464c-.592-.219-1.042-.576-1.352-1.072a3.054 3.054 0 01-.464-1.648c0-.64.147-1.189.44-1.648a2.932 2.932 0 011.2-1.072c.512-.251 1.099-.376 1.76-.376.662 0 1.248.125 1.76.376a2.91 2.91 0 011.208 1.072c.294.459.44 1.008.44 1.648a3.09 3.09 0 01-.448 1.64c-.293.491-.744.851-1.352 1.08l-.04-.464c.71.283 1.24.704 1.592 1.264.358.56.536 1.197.536 1.912 0 .699-.157 1.309-.472 1.832-.314.517-.749.92-1.304 1.208-.554.288-1.194.432-1.92.432zm0-1.128c.726 0 1.315-.2 1.768-.6.454-.405.68-.987.68-1.744 0-.768-.224-1.349-.672-1.744-.448-.4-1.04-.6-1.776-.6s-1.325.2-1.768.6c-.442.395-.664.976-.664 1.744 0 .757.224 1.339.672 1.744.448.4 1.035.6 1.76.6zm0-5.824c.64 0 1.16-.163 1.56-.488.4-.331.6-.819.6-1.464s-.2-1.128-.6-1.448c-.4-.325-.92-.488-1.56-.488s-1.16.163-1.56.488c-.394.32-.592.803-.592 1.448 0 .645.198 1.133.592 1.464.4.325.92.488 1.56.488zm9.666 6.952a3.82 3.82 0 01-1.968-.52 4.003 4.003 0 01-1.408-1.424c-.347-.603-.52-1.28-.52-2.032v-3.992c0-.773.173-1.461.52-2.064a3.795 3.795 0 011.416-1.432c.602-.352 1.285-.528 2.048-.528a3.93 3.93 0 011.824.432 3.703 3.703 0 011.384 1.208l-.904.744a2.745 2.745 0 00-.976-.92 2.656 2.656 0 00-1.328-.344c-.539 0-1.019.131-1.44.392a2.82 2.82 0 00-.992 1.032c-.24.421-.36.88-.36 1.376v2.512l-.296-.336a3.933 3.933 0 011.32-1.28 3.455 3.455 0 011.792-.488c.714 0 1.357.171 1.928.512a3.764 3.764 0 011.864 3.304c0 .709-.179 1.355-.536 1.936a3.985 3.985 0 01-1.416 1.392 3.765 3.765 0 01-1.952.52zm0-1.144c.501 0 .957-.12 1.368-.36.416-.24.744-.565.984-.976.245-.411.368-.867.368-1.368 0-.501-.123-.957-.368-1.368a2.663 2.663 0 00-.976-.984 2.622 2.622 0 00-1.368-.368c-.502 0-.958.123-1.368.368-.411.24-.739.568-.984.984-.24.411-.36.867-.36 1.368 0 .496.12.949.36 1.36a2.658 2.658 0 002.344 1.344zm9.425 1.144a3.748 3.748 0 01-1.655-.368 3.816 3.816 0 01-1.296-1.016 3.94 3.94 0 01-.768-1.488l1.128-.304c.101.416.285.776.552 1.08.266.299.578.531.936.696a2.71 2.71 0 001.136.248c.512 0 .97-.123 1.376-.368a2.81 2.81 0 00.976-.992c.24-.411.36-.861.36-1.352 0-.507-.126-.963-.376-1.368a2.81 2.81 0 00-.992-.976 2.618 2.618 0 00-1.344-.36c-.544 0-1.014.12-1.408.36-.395.235-.71.531-.944.888l-1.072-.448.352-5.992h6.152v1.128h-5.633l.585-.552-.312 5.112-.296-.392c.33-.379.73-.675 1.2-.888.469-.213.962-.32 1.48-.32.709 0 1.349.171 1.92.512a3.764 3.764 0 011.864 3.296c0 .704-.179 1.349-.536 1.936a4.122 4.122 0 01-1.424 1.4 3.766 3.766 0 01-1.961.528z" fill="#333" fill-opacity=".5"/><path d="M32.4 49l4.54-14.4h3.53L45.01 49h-2.48l-4.12-12.92h.54L34.88 49H32.4zm2.53-3.12v-2.25h7.56v2.25h-7.56zm16.218 3.42c-.993 0-1.86-.25-2.6-.75s-1.313-1.18-1.72-2.04c-.407-.86-.61-1.83-.61-2.91 0-1.093.203-2.067.61-2.92.413-.86.997-1.537 1.75-2.03.753-.5 1.64-.75 2.66-.75 1.027 0 1.887.25 2.58.75.7.493 1.23 1.17 1.59 2.03.36.86.54 1.833.54 2.92 0 1.073-.18 2.043-.54 2.91-.36.86-.897 1.54-1.61 2.04-.713.5-1.597.75-2.65.75zm.37-2.16c.647 0 1.167-.147 1.56-.44.4-.3.69-.717.87-1.25.187-.533.28-1.15.28-1.85 0-.707-.093-1.323-.28-1.85-.18-.533-.463-.947-.85-1.24-.387-.3-.887-.45-1.5-.45-.647 0-1.18.16-1.6.48-.42.313-.73.74-.93 1.28-.2.533-.3 1.127-.3 1.78 0 .66.097 1.26.29 1.8.2.533.503.957.91 1.27.407.313.923.47 1.55.47zm2.71 1.86v-7.58h-.3V34.6h2.43V49h-2.13zm9.264.3c-.994 0-1.86-.25-2.6-.75s-1.314-1.18-1.72-2.04c-.407-.86-.61-1.83-.61-2.91 0-1.093.203-2.067.61-2.92.413-.86.996-1.537 1.75-2.03.753-.5 1.64-.75 2.66-.75 1.026 0 1.886.25 2.58.75.7.493 1.23 1.17 1.59 2.03.36.86.54 1.833.54 2.92 0 1.073-.18 2.043-.54 2.91-.36.86-.897 1.54-1.61 2.04-.714.5-1.597.75-2.65.75zm.37-2.16c.646 0 1.166-.147 1.56-.44.4-.3.69-.717.87-1.25.186-.533.28-1.15.28-1.85 0-.707-.094-1.323-.28-1.85-.18-.533-.464-.947-.85-1.24-.387-.3-.887-.45-1.5-.45-.647 0-1.18.16-1.6.48-.42.313-.73.74-.93 1.28-.2.533-.3 1.127-.3 1.78 0 .66.096 1.26.29 1.8.2.533.503.957.91 1.27.406.313.923.47 1.55.47zm2.71 1.86v-7.58h-.3V34.6h2.43V49h-2.13zm4.933 0V38.2h2.13v2.63l-.26-.34c.134-.36.31-.687.53-.98.227-.3.497-.547.81-.74.267-.18.56-.32.88-.42.327-.107.66-.17 1-.19.34-.027.67-.013.99.04v2.25a3.093 3.093 0 00-1.11-.09c-.413.033-.786.15-1.12.35-.333.18-.606.41-.82.69-.206.28-.36.6-.46.96-.1.353-.15.737-.15 1.15V49h-2.42zm12.703.3c-1.093 0-2.053-.237-2.88-.71a5.056 5.056 0 01-1.94-1.97c-.46-.84-.69-1.807-.69-2.9 0-1.18.227-2.203.68-3.07.454-.873 1.084-1.55 1.89-2.03.807-.48 1.74-.72 2.8-.72 1.12 0 2.07.263 2.85.79.787.52 1.37 1.257 1.75 2.21.38.953.524 2.077.43 3.37h-2.39v-.88c-.006-1.173-.213-2.03-.62-2.57-.406-.54-1.046-.81-1.92-.81-.986 0-1.72.307-2.2.92-.48.607-.72 1.497-.72 2.67 0 1.093.24 1.94.72 2.54.48.6 1.18.9 2.1.9.594 0 1.104-.13 1.53-.39.434-.267.767-.65 1-1.15l2.38.72c-.413.973-1.053 1.73-1.92 2.27-.86.54-1.81.81-2.85.81zm-3.72-5.03v-1.82h7.43v1.82h-7.43zM95.5 49.3c-1.334 0-2.417-.3-3.25-.9-.834-.6-1.34-1.443-1.52-2.53l2.46-.38c.126.533.406.953.84 1.26.433.307.98.46 1.64.46.58 0 1.026-.113 1.34-.34.32-.233.48-.55.48-.95 0-.247-.06-.443-.18-.59-.114-.153-.367-.3-.76-.44a24.17 24.17 0 00-1.81-.53c-.907-.24-1.627-.497-2.16-.77-.534-.28-.917-.61-1.15-.99-.234-.38-.35-.84-.35-1.38 0-.673.176-1.26.53-1.76.353-.5.846-.883 1.48-1.15.633-.273 1.38-.41 2.24-.41.84 0 1.583.13 2.23.39.653.26 1.18.63 1.58 1.11.4.48.646 1.043.74 1.69l-2.46.44a1.55 1.55 0 00-.63-1.09c-.354-.267-.827-.417-1.42-.45-.567-.033-1.024.053-1.37.26-.347.2-.52.483-.52.85 0 .207.07.383.21.53.14.147.42.293.84.44.426.147 1.06.327 1.9.54.86.22 1.546.473 2.06.76.52.28.893.617 1.12 1.01.233.393.35.87.35 1.43 0 1.087-.397 1.94-1.19 2.56-.787.62-1.877.93-3.27.93zm10.82 0c-1.333 0-2.417-.3-3.25-.9-.833-.6-1.34-1.443-1.52-2.53l2.46-.38c.127.533.407.953.84 1.26.433.307.98.46 1.64.46.58 0 1.027-.113 1.34-.34.32-.233.48-.55.48-.95 0-.247-.06-.443-.18-.59-.113-.153-.367-.3-.76-.44a24.17 24.17 0 00-1.81-.53c-.907-.24-1.627-.497-2.16-.77-.533-.28-.917-.61-1.15-.99-.233-.38-.35-.84-.35-1.38 0-.673.177-1.26.53-1.76.353-.5.847-.883 1.48-1.15.633-.273 1.38-.41 2.24-.41.84 0 1.583.13 2.23.39.653.26 1.18.63 1.58 1.11.4.48.647 1.043.74 1.69l-2.46.44a1.55 1.55 0 00-.63-1.09c-.353-.267-.827-.417-1.42-.45-.567-.033-1.023.053-1.37.26-.347.2-.52.483-.52.85 0 .207.07.383.21.53.14.147.42.293.84.44.427.147 1.06.327 1.9.54.86.22 1.547.473 2.06.76.52.28.893.617 1.12 1.01.233.393.35.87.35 1.43 0 1.087-.397 1.94-1.19 2.56-.787.62-1.877.93-3.27.93z" fill="#EF633E"/></g><defs><clipPath id="clip0_0_379"><path fill="#fff" d="M0 0h238v144H0z"/></clipPath><filter id="filter0_d_0_379" x="-48" y="-24" width="334" height="240" filterUnits="userSpaceOnUse" color-interpolation-filters="sRGB"><feFlood flood-opacity="0" result="BackgroundImageFix"/><feColorMatrix in="SourceAlpha" values="0 0 0 0 0 0 0 0 0 0 0 0 0 0 0 0 0 0 127 0" result="hardAlpha"/><feOffset dy="24"/><feGaussianBlur stdDeviation="24"/><feColorMatrix values="0 0 0 0 0 0 0 0 0 0.0948107 0 0 0 0 0.205357 0 0 0 0.080899 0"/><feBlend in2="BackgroundImageFix" result="effect1_dropShadow_0_379"/><feBlend in="SourceGraphic" in2="effect1_dropShadow_0_379" result="shape"/></filter></defs></svg>