<svg width="270" height="416" fill="none" xmlns="http://www.w3.org/2000/svg"><path d="M0 160c0-56.005 0-84.008 10.9-105.4a100 100 0 0143.7-43.7C75.993 0 103.996 0 160 0h71.6c13.441 0 20.162 0 25.296 2.616a23.999 23.999 0 0110.488 10.488C270 18.238 270 24.96 270 38.4v339.2c0 13.441 0 20.162-2.616 25.296a23.998 23.998 0 01-10.488 10.488C251.762 416 245.041 416 231.6 416H38.4c-13.441 0-20.162 0-25.296-2.616a23.999 23.999 0 01-10.488-10.488C0 397.762 0 391.041 0 377.6V160z" fill="url(#paint0_linear_0_12)"/><defs><linearGradient id="paint0_linear_0_12" x1="0" y1="0" x2="0" y2="416" gradientUnits="userSpaceOnUse"><stop stop-color="#F89C72"/><stop offset="1" stop-color="#EF633E"/></linearGradient></defs></svg>