<svg width="64" height="64" viewBox="0 0 64 64" fill="none" xmlns="http://www.w3.org/2000/svg">
<g clip-path="url(#clip0_0_160)">
<g filter="url(#filter0_d_0_160)">
<path d="M32 64C49.6731 64 64 49.6731 64 32C64 14.3269 49.6731 0 32 0C14.3269 0 0 14.3269 0 32C0 49.6731 14.3269 64 32 64Z" fill="url(#paint0_linear_0_160)"/>
</g>
<path d="M22.2806 38.52C21.8966 38.52 21.5686 38.72 21.2966 39.12H20.9366V34.56H21.2966C21.6006 36.096 22.0806 37.184 22.7366 37.824C23.3926 38.464 24.2886 38.792 25.4246 38.808V35.4C23.6326 34.584 22.4726 33.856 21.9446 33.216C21.3046 32.448 20.9846 31.584 20.9846 30.624C20.9846 29.392 21.4086 28.448 22.2566 27.792C23.1206 27.136 24.2166 26.808 25.5446 26.808H25.6406V25.32H26.1206V26.856C26.4086 26.888 26.8886 26.992 27.5606 27.168C28.2486 27.344 28.7126 27.432 28.9526 27.432C29.2086 27.432 29.4006 27.384 29.5286 27.288C29.6566 27.192 29.7446 27.04 29.7926 26.832H30.1766V30.984H29.7926C29.6486 29.912 29.2406 29.048 28.5686 28.392C27.8966 27.736 27.0806 27.36 26.1206 27.264V30.816C26.7286 31.056 27.3606 31.352 28.0166 31.704C28.6726 32.056 29.0726 32.296 29.2166 32.424C29.3606 32.552 29.5526 32.728 29.7926 32.952C30.0486 33.176 30.2326 33.392 30.3446 33.6C30.6166 34.16 30.7526 34.712 30.7526 35.256C30.7526 36.6 30.3046 37.592 29.4086 38.232C28.5286 38.872 27.3606 39.208 25.9046 39.24V40.488H25.4246V39.24C24.8166 39.208 24.1686 39.08 23.4806 38.856C22.7926 38.632 22.3926 38.52 22.2806 38.52ZM23.7686 28.584C23.7686 29.32 24.3926 29.992 25.6406 30.6V27.24C25.0966 27.256 24.6486 27.376 24.2966 27.6C23.9446 27.824 23.7686 28.152 23.7686 28.584ZM27.8006 37.296C27.8006 36.976 27.6406 36.696 27.3206 36.456C27.0006 36.2 26.5286 35.92 25.9046 35.616V38.808C27.1686 38.712 27.8006 38.208 27.8006 37.296ZM32.9066 40.752C32.9066 41.424 33.1466 41.984 33.6266 42.432C34.1066 42.896 34.6746 43.128 35.3306 43.128C37.2826 43.128 38.2586 41.672 38.2586 38.76C38.2586 37.608 38.0346 36.696 37.5866 36.024C37.1546 35.336 36.6106 34.992 35.9546 34.992C34.9786 34.992 34.1146 35.608 33.3626 36.84H32.9306V27.744H40.1786C40.6266 27.744 40.9466 27.656 41.1386 27.48C41.3306 27.304 41.4426 27.016 41.4746 26.616H41.9066V31.704H33.4106V35.832H33.5786C34.0906 35.208 34.7546 34.728 35.5706 34.392C36.4026 34.04 37.2746 33.864 38.1866 33.864C39.5306 33.864 40.6826 34.272 41.6426 35.088C42.6026 35.888 43.0826 37.08 43.0826 38.664C43.0826 40.232 42.5226 41.496 41.4026 42.456C40.2826 43.432 38.7626 43.92 36.8426 43.92C35.3706 43.92 34.2746 43.6 33.5546 42.96C32.8346 42.32 32.4746 41.568 32.4746 40.704C32.4746 40.096 32.6586 39.576 33.0266 39.144C33.4106 38.712 33.9226 38.496 34.5626 38.496C35.2026 38.496 35.6986 38.664 36.0506 39C36.4186 39.352 36.6026 39.8 36.6026 40.344C36.6026 40.904 36.4186 41.344 36.0506 41.664C35.6986 41.984 35.3146 42.144 34.8986 42.144C34.0826 42.144 33.5866 41.768 33.4106 41.016C33.3626 40.824 33.3306 40.688 33.3146 40.608C33.2986 40.528 33.2266 40.488 33.0986 40.488C32.9706 40.488 32.9066 40.576 32.9066 40.752Z" fill="#333333"/>
</g>
<defs>
<filter id="filter0_d_0_160" x="-24" y="-8" width="112" height="112" filterUnits="userSpaceOnUse" color-interpolation-filters="sRGB">
<feFlood flood-opacity="0" result="BackgroundImageFix"/>
<feColorMatrix in="SourceAlpha" type="matrix" values="0 0 0 0 0 0 0 0 0 0 0 0 0 0 0 0 0 0 127 0" result="hardAlpha"/>
<feOffset dy="16"/>
<feGaussianBlur stdDeviation="12"/>
<feColorMatrix type="matrix" values="0 0 0 0 0 0 0 0 0 0.0941176 0 0 0 0 0.203922 0 0 0 0.08 0"/>
<feBlend mode="normal" in2="BackgroundImageFix" result="effect1_dropShadow_0_160"/>
<feBlend mode="normal" in="SourceGraphic" in2="effect1_dropShadow_0_160" result="shape"/>
</filter>
<linearGradient id="paint0_linear_0_160" x1="0" y1="0" x2="0" y2="64" gradientUnits="userSpaceOnUse">
<stop stop-color="#E4FFFC"/>
<stop offset="1" stop-color="#C5FFF8"/>
</linearGradient>
<clipPath id="clip0_0_160">
<rect width="64" height="64" fill="white"/>
</clipPath>
</defs>
</svg>
