<svg width="64" height="64" viewBox="0 0 64 64" fill="none" xmlns="http://www.w3.org/2000/svg">
<g clip-path="url(#clip0_0_130)">
<g filter="url(#filter0_d_0_130)">
<path d="M32 64C49.6731 64 64 49.6731 64 32C64 14.3269 49.6731 0 32 0C14.3269 0 0 14.3269 0 32C0 49.6731 14.3269 64 32 64Z" fill="url(#paint0_linear_0_130)"/>
</g>
<path d="M21.5892 38.52C21.2052 38.52 20.8772 38.72 20.6052 39.12H20.2452V34.56H20.6052C20.9092 36.096 21.3892 37.184 22.0452 37.824C22.7012 38.464 23.5972 38.792 24.7332 38.808V35.4C22.9412 34.584 21.7812 33.856 21.2532 33.216C20.6132 32.448 20.2932 31.584 20.2932 30.624C20.2932 29.392 20.7172 28.448 21.5652 27.792C22.4292 27.136 23.5252 26.808 24.8532 26.808H24.9492V25.32H25.4292V26.856C25.7172 26.888 26.1972 26.992 26.8692 27.168C27.5572 27.344 28.0212 27.432 28.2612 27.432C28.5172 27.432 28.7092 27.384 28.8372 27.288C28.9652 27.192 29.0532 27.04 29.1012 26.832H29.4852V30.984H29.1012C28.9572 29.912 28.5492 29.048 27.8772 28.392C27.2052 27.736 26.3892 27.36 25.4292 27.264V30.816C26.0372 31.056 26.6692 31.352 27.3252 31.704C27.9812 32.056 28.3812 32.296 28.5252 32.424C28.6692 32.552 28.8612 32.728 29.1012 32.952C29.3572 33.176 29.5412 33.392 29.6532 33.6C29.9252 34.16 30.0612 34.712 30.0612 35.256C30.0612 36.6 29.6132 37.592 28.7172 38.232C27.8372 38.872 26.6692 39.208 25.2132 39.24V40.488H24.7332V39.24C24.1252 39.208 23.4772 39.08 22.7892 38.856C22.1012 38.632 21.7012 38.52 21.5892 38.52ZM23.0772 28.584C23.0772 29.32 23.7012 29.992 24.9492 30.6V27.24C24.4052 27.256 23.9572 27.376 23.6052 27.6C23.2532 27.824 23.0772 28.152 23.0772 28.584ZM27.1092 37.296C27.1092 36.976 26.9492 36.696 26.6292 36.456C26.3092 36.2 25.8372 35.92 25.2132 35.616V38.808C26.4772 38.712 27.1092 38.208 27.1092 37.296ZM39.1272 34.68V32.256C39.1272 30.592 39.0072 29.424 38.7672 28.752C38.5272 28.064 38.1272 27.72 37.5672 27.72C37.0072 27.72 36.6072 28.064 36.3672 28.752C36.1272 29.424 36.0072 30.592 36.0072 32.256C36.0072 33.92 36.1192 35.072 36.3432 35.712C36.5832 36.352 36.9912 36.672 37.5672 36.672C37.9032 36.672 38.2472 36.48 38.5992 36.096C38.9512 35.712 39.1272 35.24 39.1272 34.68ZM32.7432 40.656C32.7432 41.264 33.0312 41.848 33.6072 42.408C34.1832 42.968 34.9992 43.248 36.0552 43.248C37.0952 43.248 37.8152 42.952 38.2152 42.36C38.4392 42.04 38.6152 41.736 38.7432 41.448C38.8712 41.176 38.9672 40.784 39.0312 40.272C39.0952 39.616 39.1272 38.808 39.1272 37.848V36.24H39.0552C38.3352 37.12 37.3272 37.56 36.0312 37.56C34.7512 37.56 33.6232 37.152 32.6472 36.336C31.6872 35.504 31.2072 34.304 31.2072 32.736C31.2072 31.168 31.7912 29.872 32.9592 28.848C34.1272 27.808 35.6552 27.288 37.5432 27.288C38.7272 27.288 39.7512 27.52 40.6152 27.984C41.4952 28.432 42.1672 29.056 42.6312 29.856C43.5272 31.408 43.9752 33.384 43.9752 35.784C43.9752 38.168 43.3912 40.112 42.2232 41.616C41.0712 43.12 39.3032 43.872 36.9192 43.872C35.4792 43.872 34.3512 43.544 33.5352 42.888C32.7192 42.248 32.3112 41.48 32.3112 40.584C32.3112 39.976 32.5032 39.456 32.8872 39.024C33.2712 38.592 33.7592 38.376 34.3512 38.376C34.9592 38.376 35.4392 38.568 35.7912 38.952C36.1592 39.32 36.3432 39.76 36.3432 40.272C36.3432 40.784 36.1912 41.208 35.8872 41.544C35.5992 41.88 35.2152 42.048 34.7352 42.048C34.2712 42.048 33.9032 41.912 33.6312 41.64C33.3592 41.384 33.2072 41.04 33.1752 40.608C33.1432 40.448 33.0712 40.368 32.9592 40.368C32.8152 40.368 32.7432 40.464 32.7432 40.656Z" fill="#333333"/>
</g>
<defs>
<filter id="filter0_d_0_130" x="-24" y="-8" width="112" height="112" filterUnits="userSpaceOnUse" color-interpolation-filters="sRGB">
<feFlood flood-opacity="0" result="BackgroundImageFix"/>
<feColorMatrix in="SourceAlpha" type="matrix" values="0 0 0 0 0 0 0 0 0 0 0 0 0 0 0 0 0 0 127 0" result="hardAlpha"/>
<feOffset dy="16"/>
<feGaussianBlur stdDeviation="12"/>
<feColorMatrix type="matrix" values="0 0 0 0 0 0 0 0 0 0.0941176 0 0 0 0 0.203922 0 0 0 0.08 0"/>
<feBlend mode="normal" in2="BackgroundImageFix" result="effect1_dropShadow_0_130"/>
<feBlend mode="normal" in="SourceGraphic" in2="effect1_dropShadow_0_130" result="shape"/>
</filter>
<linearGradient id="paint0_linear_0_130" x1="0" y1="0" x2="0" y2="64" gradientUnits="userSpaceOnUse">
<stop stop-color="#E4FFFC"/>
<stop offset="1" stop-color="#C5FFF8"/>
</linearGradient>
<clipPath id="clip0_0_130">
<rect width="64" height="64" fill="white"/>
</clipPath>
</defs>
</svg>
