<svg width="64" height="64" viewBox="0 0 64 64" fill="none" xmlns="http://www.w3.org/2000/svg">
<g clip-path="url(#clip0_0_145)">
<g filter="url(#filter0_d_0_145)">
<path d="M32 64C49.6731 64 64 49.6731 64 32C64 14.3269 49.6731 0 32 0C14.3269 0 0 14.3269 0 32C0 49.6731 14.3269 64 32 64Z" fill="url(#paint0_linear_0_145)"/>
</g>
<path d="M22.9368 38.52C22.5528 38.52 22.2248 38.72 21.9528 39.12H21.5928V34.56H21.9528C22.2568 36.096 22.7368 37.184 23.3928 37.824C24.0488 38.464 24.9448 38.792 26.0808 38.808V35.4C24.2888 34.584 23.1288 33.856 22.6008 33.216C21.9608 32.448 21.6408 31.584 21.6408 30.624C21.6408 29.392 22.0648 28.448 22.9128 27.792C23.7768 27.136 24.8728 26.808 26.2008 26.808H26.2968V25.32H26.7768V26.856C27.0648 26.888 27.5448 26.992 28.2168 27.168C28.9048 27.344 29.3688 27.432 29.6088 27.432C29.8648 27.432 30.0568 27.384 30.1848 27.288C30.3128 27.192 30.4008 27.04 30.4488 26.832H30.8328V30.984H30.4488C30.3048 29.912 29.8968 29.048 29.2248 28.392C28.5528 27.736 27.7368 27.36 26.7768 27.264V30.816C27.3848 31.056 28.0168 31.352 28.6728 31.704C29.3288 32.056 29.7288 32.296 29.8728 32.424C30.0168 32.552 30.2088 32.728 30.4488 32.952C30.7048 33.176 30.8888 33.392 31.0008 33.6C31.2728 34.16 31.4088 34.712 31.4088 35.256C31.4088 36.6 30.9608 37.592 30.0648 38.232C29.1848 38.872 28.0168 39.208 26.5608 39.24V40.488H26.0808V39.24C25.4728 39.208 24.8248 39.08 24.1368 38.856C23.4488 38.632 23.0488 38.52 22.9368 38.52ZM24.4248 28.584C24.4248 29.32 25.0488 29.992 26.2968 30.6V27.24C25.7528 27.256 25.3048 27.376 24.9528 27.6C24.6008 27.824 24.4248 28.152 24.4248 28.584ZM28.4568 37.296C28.4568 36.976 28.2968 36.696 27.9768 36.456C27.6568 36.2 27.1848 35.92 26.5608 35.616V38.808C27.8248 38.712 28.4568 38.208 28.4568 37.296ZM33.0828 27.744H40.8828C41.3308 27.744 41.6508 27.656 41.8428 27.48C42.0348 27.304 42.1468 27.016 42.1788 26.616H42.6108V28.944C42.6108 31.056 42.1308 32.76 41.1708 34.056C40.7708 34.584 40.3708 35.128 39.9708 35.688C39.5868 36.232 39.2508 36.968 38.9628 37.896C38.6908 38.824 38.5548 39.928 38.5548 41.208C38.5548 41.976 38.3788 42.608 38.0268 43.104C37.6748 43.6 37.1228 43.848 36.3708 43.848C35.6348 43.848 35.0588 43.6 34.6428 43.104C34.2268 42.624 34.0188 41.992 34.0188 41.208C34.0188 40.296 34.2028 39.544 34.5708 38.952C34.7628 38.632 34.9388 38.36 35.0988 38.136C35.2588 37.912 35.5148 37.664 35.8668 37.392C36.2188 37.104 36.4828 36.896 36.6588 36.768C36.8508 36.64 37.1708 36.432 37.6188 36.144C38.0828 35.84 38.4748 35.584 38.7948 35.376C39.1148 35.152 39.4188 34.92 39.7068 34.68C40.0108 34.424 40.3468 34.104 40.7148 33.72C41.4348 32.952 41.8908 31.896 42.0828 30.552C42.0188 30.632 41.9228 30.736 41.7948 30.864C41.6668 30.992 41.3228 31.16 40.7628 31.368C40.2028 31.576 39.5628 31.68 38.8428 31.68H34.7868C34.3388 31.68 34.0188 31.768 33.8268 31.944C33.6348 32.12 33.5228 32.408 33.4908 32.808H33.0828V27.744Z" fill="#333333"/>
</g>
<defs>
<filter id="filter0_d_0_145" x="-24" y="-8" width="112" height="112" filterUnits="userSpaceOnUse" color-interpolation-filters="sRGB">
<feFlood flood-opacity="0" result="BackgroundImageFix"/>
<feColorMatrix in="SourceAlpha" type="matrix" values="0 0 0 0 0 0 0 0 0 0 0 0 0 0 0 0 0 0 127 0" result="hardAlpha"/>
<feOffset dy="16"/>
<feGaussianBlur stdDeviation="12"/>
<feColorMatrix type="matrix" values="0 0 0 0 0 0 0 0 0 0.0941176 0 0 0 0 0.203922 0 0 0 0.08 0"/>
<feBlend mode="normal" in2="BackgroundImageFix" result="effect1_dropShadow_0_145"/>
<feBlend mode="normal" in="SourceGraphic" in2="effect1_dropShadow_0_145" result="shape"/>
</filter>
<linearGradient id="paint0_linear_0_145" x1="0" y1="0" x2="0" y2="64" gradientUnits="userSpaceOnUse">
<stop stop-color="#E4FFFC"/>
<stop offset="1" stop-color="#C5FFF8"/>
</linearGradient>
<clipPath id="clip0_0_145">
<rect width="64" height="64" fill="white"/>
</clipPath>
</defs>
</svg>
