<svg width="114" height="17" viewBox="0 0 114 17" fill="none" xmlns="http://www.w3.org/2000/svg">
<path fill-rule="evenodd" clip-rule="evenodd" d="M17.9841 6.47C17.9461 6.35439 17.8453 6.27008 17.7238 6.25252L11.8953 5.41295L9.28877 0.178196C9.23464 0.0689792 9.12252 0 9.00009 0C8.87765 0 8.76521 0.0689792 8.7114 0.178196L6.10453 5.41327L0.27605 6.25284C0.154583 6.2704 0.0540581 6.35439 0.0157171 6.47031C-0.0219796 6.5856 0.0092732 6.7127 0.0972321 6.79733L4.31507 10.8722L3.31917 16.6262C3.29855 16.746 3.34817 16.867 3.44708 16.9385C3.54664 17.0107 3.67841 17.02 3.78635 16.9628L9.00009 14.2464L14.2132 16.9628C14.2602 16.9874 14.3121 16.9995 14.3633 16.9995C14.43 16.9995 14.4964 16.9791 14.5528 16.9385C14.652 16.867 14.7016 16.746 14.6807 16.6262L13.6851 10.8725L17.9029 6.79733C17.9906 6.71206 18.0222 6.58528 17.9841 6.47Z" fill="#5DC4B8"/>
<path fill-rule="evenodd" clip-rule="evenodd" d="M41.9841 6.47C41.9461 6.35439 41.8453 6.27008 41.7238 6.25252L35.8953 5.41295L33.2888 0.178196C33.2346 0.0689792 33.1225 0 33.0001 0C32.8777 0 32.7652 0.0689792 32.7114 0.178196L30.1045 5.41327L24.276 6.25284C24.1546 6.2704 24.0541 6.35439 24.0157 6.47031C23.978 6.5856 24.0093 6.7127 24.0972 6.79733L28.3151 10.8722L27.3192 16.6262C27.2985 16.746 27.3482 16.867 27.4471 16.9385C27.5466 17.0107 27.6784 17.02 27.7863 16.9628L33.0001 14.2464L38.2132 16.9628C38.2602 16.9874 38.3121 16.9995 38.3633 16.9995C38.43 16.9995 38.4964 16.9791 38.5528 16.9385C38.652 16.867 38.7016 16.746 38.6807 16.6262L37.6851 10.8725L41.9029 6.79733C41.9906 6.71206 42.0222 6.58528 41.9841 6.47Z" fill="#5DC4B8"/>
<path fill-rule="evenodd" clip-rule="evenodd" d="M65.9841 6.47C65.9461 6.35439 65.8453 6.27008 65.7238 6.25252L59.8953 5.41295L57.2888 0.178196C57.2346 0.0689792 57.1225 0 57.0001 0C56.8777 0 56.7652 0.0689792 56.7114 0.178196L54.1045 5.41327L48.276 6.25284C48.1546 6.2704 48.0541 6.35439 48.0157 6.47031C47.978 6.5856 48.0093 6.7127 48.0972 6.79733L52.3151 10.8722L51.3192 16.6262C51.2985 16.746 51.3482 16.867 51.4471 16.9385C51.5466 17.0107 51.6784 17.02 51.7863 16.9628L57.0001 14.2464L62.2132 16.9628C62.2602 16.9874 62.3121 16.9995 62.3633 16.9995C62.43 16.9995 62.4964 16.9791 62.5528 16.9385C62.652 16.867 62.7016 16.746 62.6807 16.6262L61.6851 10.8725L65.9029 6.79733C65.9906 6.71206 66.0222 6.58528 65.9841 6.47Z" fill="#5DC4B8"/>
<path fill-rule="evenodd" clip-rule="evenodd" d="M89.9841 6.47C89.9461 6.35439 89.8453 6.27008 89.7238 6.25252L83.8953 5.41295L81.2888 0.178196C81.2346 0.0689792 81.1225 0 81.0001 0C80.8777 0 80.7652 0.0689792 80.7114 0.178196L78.1045 5.41327L72.276 6.25284C72.1546 6.2704 72.0541 6.35439 72.0157 6.47031C71.978 6.5856 72.0093 6.7127 72.0972 6.79733L76.3151 10.8722L75.3192 16.6262C75.2985 16.746 75.3482 16.867 75.4471 16.9385C75.5466 17.0107 75.6784 17.02 75.7863 16.9628L81.0001 14.2464L86.2132 16.9628C86.2602 16.9874 86.3121 16.9995 86.3633 16.9995C86.43 16.9995 86.4964 16.9791 86.5528 16.9385C86.652 16.867 86.7016 16.746 86.6807 16.6262L85.6851 10.8725L89.9029 6.79733C89.9906 6.71206 90.0222 6.58528 89.9841 6.47Z" fill="#5DC4B8"/>
<path fill-rule="evenodd" clip-rule="evenodd" d="M113.984 6.47C113.946 6.35439 113.845 6.27008 113.724 6.25252L107.895 5.41295L105.289 0.178196C105.235 0.0689792 105.123 0 105 0C104.878 0 104.765 0.0689792 104.711 0.178196L102.105 5.41327L96.276 6.25284C96.1546 6.2704 96.0541 6.35439 96.0157 6.47031C95.978 6.5856 96.0093 6.7127 96.0972 6.79733L100.315 10.8722L99.3192 16.6262C99.2985 16.746 99.3482 16.867 99.4471 16.9385C99.5466 17.0107 99.6784 17.02 99.7863 16.9628L105 14.2464L110.213 16.9628C110.26 16.9874 110.312 16.9995 110.363 16.9995C110.43 16.9995 110.496 16.9791 110.553 16.9385C110.652 16.867 110.702 16.746 110.681 16.6262L109.685 10.8725L113.903 6.79733C113.991 6.71206 114.022 6.58528 113.984 6.47Z" fill="#DCDCDC"/>
</svg>
