<svg width="24" height="26" fill="none" xmlns="http://www.w3.org/2000/svg"><path fill-rule="evenodd" clip-rule="evenodd" d="M15.952 5.073c.588-.58.848-.863.848-1.528 0-.664-.26-.948-.849-1.528a1.17 1.17 0 010-1.67 1.213 1.213 0 011.697 0C18.304.99 19.2 1.873 19.2 3.544c0 1.672-.897 2.555-1.552 3.2-.588.58-.848.863-.848 1.528a1.19 1.19 0 01-1.2 1.181 1.19 1.19 0 01-1.2-1.181c0-1.672.897-2.555 1.552-3.2zm-5.6 0c.588-.58.848-.863.848-1.528 0-.664-.26-.948-.849-1.528a1.17 1.17 0 010-1.67 1.213 1.213 0 011.697 0C12.704.99 13.6 1.873 13.6 3.544c0 1.672-.897 2.555-1.551 3.2-.589.58-.849.863-.849 1.528A1.19 1.19 0 0110 9.453a1.19 1.19 0 01-1.2-1.181c0-1.672.897-2.555 1.552-3.2zM5.534 20.485H4.397C1.972 20.483 0 18.54 0 16.15c0-2.389 1.974-4.333 4.4-4.333H22c.663 0 1.2.53 1.2 1.182v3.94c0 2.65-1.162 5.038-3.01 6.696h2.61c.663 0 1.2.53 1.2 1.182a1.19 1.19 0 01-1.2 1.182H5.2c-.663 0-1.2-.53-1.2-1.182a1.19 1.19 0 011.2-1.182h2.61a9.104 9.104 0 01-2.276-3.151zM4.8 16.939v-2.757h-.4c-1.103 0-2 .883-2 1.97 0 1.086.897 1.97 2 1.97h.478a8.978 8.978 0 01-.078-1.183z" fill="#fff"/></svg>