<svg width="238" height="144" viewBox="0 0 238 144" fill="none" xmlns="http://www.w3.org/2000/svg">
<g clip-path="url(#clip0_0_379)">
<g filter="url(#filter0_d_0_379)">
<path d="M0 80C0 51.9974 0 37.9961 5.44967 27.3005C10.2433 17.8924 17.8924 10.2433 27.3005 5.44967C37.9961 0 51.9974 0 80 0H212.4C221.361 0 225.841 0 229.264 1.7439C232.274 3.27787 234.722 5.72556 236.256 8.73615C238 12.1587 238 16.6392 238 25.6V118.4C238 127.361 238 131.841 236.256 135.264C234.722 138.274 232.274 140.722 229.264 142.256C225.841 144 221.361 144 212.4 144H25.6C16.6392 144 12.1587 144 8.73615 142.256C5.72556 140.722 3.27787 138.274 1.7439 135.264C0 131.841 0 127.361 0 118.4V80Z" fill="white"/>
</g>
<path d="M36.632 81.24C35.912 81.24 35.2747 81.096 34.72 80.808C34.1707 80.52 33.7387 80.1173 33.424 79.6C33.1147 79.0773 32.96 78.4667 32.96 77.768C32.96 77.0533 33.1333 76.4187 33.48 75.864C33.8267 75.304 34.3547 74.88 35.064 74.592L35.048 75.056C34.456 74.8373 34.0053 74.48 33.696 73.984C33.3867 73.488 33.232 72.9387 33.232 72.336C33.232 71.696 33.3787 71.1467 33.672 70.688C33.9653 70.224 34.3653 69.8667 34.872 69.616C35.384 69.3653 35.9707 69.24 36.632 69.24C37.2933 69.24 37.88 69.3653 38.392 69.616C38.904 69.8667 39.3067 70.224 39.6 70.688C39.8933 71.1467 40.04 71.696 40.04 72.336C40.04 72.9387 39.8907 73.4853 39.592 73.976C39.2987 74.4667 38.848 74.8267 38.24 75.056L38.2 74.592C38.9093 74.8747 39.44 75.296 39.792 75.856C40.1493 76.416 40.328 77.0533 40.328 77.768C40.328 78.4667 40.1707 79.0773 39.856 79.6C39.5413 80.1173 39.1067 80.52 38.552 80.808C37.9973 81.096 37.3573 81.24 36.632 81.24ZM36.632 80.112C37.3573 80.112 37.9467 79.912 38.4 79.512C38.8533 79.1067 39.08 78.5253 39.08 77.768C39.08 77 38.856 76.4187 38.408 76.024C37.96 75.624 37.368 75.424 36.632 75.424C35.896 75.424 35.3067 75.624 34.864 76.024C34.4213 76.4187 34.2 77 34.2 77.768C34.2 78.5253 34.424 79.1067 34.872 79.512C35.32 79.912 35.9067 80.112 36.632 80.112ZM36.632 74.288C37.272 74.288 37.792 74.1253 38.192 73.8C38.592 73.4693 38.792 72.9813 38.792 72.336C38.792 71.6907 38.592 71.208 38.192 70.888C37.792 70.5627 37.272 70.4 36.632 70.4C35.992 70.4 35.472 70.5627 35.072 70.888C34.6773 71.208 34.48 71.6907 34.48 72.336C34.48 72.9813 34.6773 73.4693 35.072 73.8C35.472 74.1253 35.992 74.288 36.632 74.288ZM44.4093 81V70.792L42.2413 72.096V70.776L44.4093 69.48H45.6013V81H44.4093ZM52.1476 81.24C51.4276 81.24 50.7903 81.096 50.2356 80.808C49.6863 80.52 49.2543 80.1173 48.9396 79.6C48.6303 79.0773 48.4756 78.4667 48.4756 77.768C48.4756 77.0533 48.649 76.4187 48.9956 75.864C49.3423 75.304 49.8703 74.88 50.5796 74.592L50.5636 75.056C49.9716 74.8373 49.521 74.48 49.2116 73.984C48.9023 73.488 48.7476 72.9387 48.7476 72.336C48.7476 71.696 48.8943 71.1467 49.1876 70.688C49.481 70.224 49.881 69.8667 50.3876 69.616C50.8996 69.3653 51.4863 69.24 52.1476 69.24C52.809 69.24 53.3956 69.3653 53.9076 69.616C54.4196 69.8667 54.8223 70.224 55.1156 70.688C55.409 71.1467 55.5556 71.696 55.5556 72.336C55.5556 72.9387 55.4063 73.4853 55.1076 73.976C54.8143 74.4667 54.3636 74.8267 53.7556 75.056L53.7156 74.592C54.425 74.8747 54.9556 75.296 55.3076 75.856C55.665 76.416 55.8436 77.0533 55.8436 77.768C55.8436 78.4667 55.6863 79.0773 55.3716 79.6C55.057 80.1173 54.6223 80.52 54.0676 80.808C53.513 81.096 52.873 81.24 52.1476 81.24ZM52.1476 80.112C52.873 80.112 53.4623 79.912 53.9156 79.512C54.369 79.1067 54.5956 78.5253 54.5956 77.768C54.5956 77 54.3716 76.4187 53.9236 76.024C53.4756 75.624 52.8836 75.424 52.1476 75.424C51.4116 75.424 50.8223 75.624 50.3796 76.024C49.937 76.4187 49.7156 77 49.7156 77.768C49.7156 78.5253 49.9396 79.1067 50.3876 79.512C50.8356 79.912 51.4223 80.112 52.1476 80.112ZM52.1476 74.288C52.7876 74.288 53.3076 74.1253 53.7076 73.8C54.1076 73.4693 54.3076 72.9813 54.3076 72.336C54.3076 71.6907 54.1076 71.208 53.7076 70.888C53.3076 70.5627 52.7876 70.4 52.1476 70.4C51.5076 70.4 50.9876 70.5627 50.5876 70.888C50.193 71.208 49.9956 71.6907 49.9956 72.336C49.9956 72.9813 50.193 73.4693 50.5876 73.8C50.9876 74.1253 51.5076 74.288 52.1476 74.288ZM61.8129 81.24C61.0929 81.24 60.4369 81.0667 59.8449 80.72C59.2582 80.368 58.7889 79.8933 58.4369 79.296C58.0902 78.6933 57.9169 78.016 57.9169 77.264V73.272C57.9169 72.4987 58.0902 71.8107 58.4369 71.208C58.7835 70.6 59.2555 70.1227 59.8529 69.776C60.4555 69.424 61.1382 69.248 61.9009 69.248C62.5569 69.248 63.1649 69.392 63.7249 69.68C64.2902 69.968 64.7515 70.3707 65.1089 70.888L64.2049 71.632C63.9595 71.248 63.6342 70.9413 63.2289 70.712C62.8235 70.4827 62.3809 70.368 61.9009 70.368C61.3622 70.368 60.8822 70.4987 60.4609 70.76C60.0395 71.0213 59.7089 71.3653 59.4689 71.792C59.2289 72.2133 59.1089 72.672 59.1089 73.168V75.68L58.8129 75.344C59.1489 74.816 59.5889 74.3893 60.1329 74.064C60.6822 73.7387 61.2795 73.576 61.9249 73.576C62.6395 73.576 63.2822 73.7467 63.8529 74.088C64.4235 74.424 64.8769 74.88 65.2129 75.456C65.5489 76.032 65.7169 76.6773 65.7169 77.392C65.7169 78.1013 65.5382 78.7467 65.1809 79.328C64.8289 79.9093 64.3569 80.3733 63.7649 80.72C63.1782 81.0667 62.5275 81.24 61.8129 81.24ZM61.8129 80.096C62.3142 80.096 62.7702 79.976 63.1809 79.736C63.5969 79.496 63.9249 79.1707 64.1649 78.76C64.4102 78.3493 64.5329 77.8933 64.5329 77.392C64.5329 76.8907 64.4102 76.4347 64.1649 76.024C63.9249 75.608 63.5995 75.28 63.1889 75.04C62.7782 74.7947 62.3222 74.672 61.8209 74.672C61.3195 74.672 60.8635 74.7947 60.4529 75.04C60.0422 75.28 59.7142 75.608 59.4689 76.024C59.2289 76.4347 59.1089 76.8907 59.1089 77.392C59.1089 77.888 59.2289 78.3413 59.4689 78.752C59.7089 79.1627 60.0342 79.4907 60.4449 79.736C60.8555 79.976 61.3115 80.096 61.8129 80.096ZM73.5139 81L70.1859 69.48H71.4099L74.1059 78.992L76.7859 69.488L78.0179 69.48L80.7139 78.992L83.3939 69.48H84.6259L81.3059 81H80.1219L77.4019 71.552L74.6979 81H73.5139ZM85.2815 81V79.632H86.6495V81H85.2815ZM92.3231 81V69.48H96.7711C97.4165 69.48 97.9791 69.6133 98.4591 69.88C98.9391 70.1467 99.3125 70.5067 99.5791 70.96C99.8458 71.408 99.9791 71.904 99.9791 72.448C99.9791 73.0667 99.8138 73.6187 99.4831 74.104C99.1525 74.584 98.7098 74.9173 98.1551 75.104L98.1391 74.712C98.8858 74.9253 99.4725 75.2987 99.8991 75.832C100.326 76.3653 100.539 77.0107 100.539 77.768C100.539 78.4347 100.398 79.0107 100.115 79.496C99.8325 79.976 99.4351 80.3467 98.9231 80.608C98.4111 80.8693 97.8165 81 97.1391 81H92.3231ZM93.5071 79.872H96.8511C97.3205 79.872 97.7418 79.7893 98.1151 79.624C98.4885 79.4533 98.7818 79.2133 98.9951 78.904C99.2138 78.5947 99.3231 78.2213 99.3231 77.784C99.3231 77.3573 99.2245 76.9733 99.0271 76.632C98.8298 76.2907 98.5605 76.0187 98.2191 75.816C97.8831 75.608 97.4991 75.504 97.0671 75.504H93.5071V79.872ZM93.5071 74.392H96.7631C97.1311 74.392 97.4671 74.3093 97.7711 74.144C98.0751 73.9733 98.3151 73.7413 98.4911 73.448C98.6725 73.1547 98.7631 72.816 98.7631 72.432C98.7631 71.888 98.5738 71.4453 98.1951 71.104C97.8218 70.7627 97.3445 70.592 96.7631 70.592H93.5071V74.392ZM104.608 81.24C103.957 81.24 103.41 81.1227 102.968 80.888C102.53 80.6533 102.202 80.3413 101.984 79.952C101.765 79.5627 101.656 79.1387 101.656 78.68C101.656 78.2107 101.749 77.8107 101.936 77.48C102.128 77.144 102.386 76.8693 102.712 76.656C103.042 76.4427 103.424 76.28 103.856 76.168C104.293 76.0613 104.776 75.968 105.304 75.888C105.837 75.8027 106.357 75.7307 106.864 75.672C107.376 75.608 107.824 75.5467 108.208 75.488L107.792 75.744C107.808 74.8907 107.642 74.2587 107.296 73.848C106.949 73.4373 106.346 73.232 105.488 73.232C104.896 73.232 104.394 73.3653 103.984 73.632C103.578 73.8987 103.293 74.32 103.128 74.896L101.984 74.56C102.181 73.7867 102.578 73.1867 103.176 72.76C103.773 72.3333 104.549 72.12 105.504 72.12C106.293 72.12 106.962 72.2693 107.512 72.568C108.066 72.8613 108.458 73.288 108.688 73.848C108.794 74.0987 108.864 74.3787 108.896 74.688C108.928 74.9973 108.944 75.312 108.944 75.632V81H107.896V78.832L108.2 78.96C107.906 79.7013 107.45 80.2667 106.832 80.656C106.213 81.0453 105.472 81.24 104.608 81.24ZM104.744 80.224C105.293 80.224 105.773 80.1253 106.184 79.928C106.594 79.7307 106.925 79.4613 107.176 79.12C107.426 78.7733 107.589 78.384 107.664 77.952C107.728 77.6747 107.762 77.3707 107.768 77.04C107.773 76.704 107.776 76.4533 107.776 76.288L108.224 76.52C107.824 76.5733 107.389 76.6267 106.92 76.68C106.456 76.7333 105.997 76.7947 105.544 76.864C105.096 76.9333 104.69 77.016 104.328 77.112C104.082 77.1813 103.845 77.28 103.616 77.408C103.386 77.5307 103.197 77.696 103.048 77.904C102.904 78.112 102.832 78.3707 102.832 78.68C102.832 78.9307 102.893 79.1733 103.016 79.408C103.144 79.6427 103.346 79.8373 103.624 79.992C103.906 80.1467 104.28 80.224 104.744 80.224ZM111.774 84.84L113.446 80.304L113.47 81.648L109.686 72.36H110.934L114.038 80.128H113.526L116.39 72.36H117.59L112.95 84.84H111.774ZM122.859 81.24C122.065 81.24 121.393 81.04 120.843 80.64C120.294 80.2347 119.878 79.688 119.595 79C119.313 78.3067 119.171 77.5307 119.171 76.672C119.171 75.7973 119.313 75.0187 119.595 74.336C119.883 73.648 120.305 73.1067 120.859 72.712C121.414 72.3173 122.097 72.12 122.907 72.12C123.697 72.12 124.374 72.32 124.939 72.72C125.505 73.12 125.937 73.664 126.235 74.352C126.539 75.04 126.691 75.8133 126.691 76.672C126.691 77.536 126.539 78.312 126.235 79C125.931 79.688 125.494 80.2347 124.923 80.64C124.353 81.04 123.665 81.24 122.859 81.24ZM118.971 84.84V72.36H120.027V78.864H120.155V84.84H118.971ZM122.739 80.144C123.342 80.144 123.843 79.992 124.243 79.688C124.643 79.384 124.942 78.9707 125.139 78.448C125.342 77.92 125.443 77.328 125.443 76.672C125.443 76.0213 125.345 75.4347 125.147 74.912C124.95 74.3893 124.649 73.976 124.243 73.672C123.843 73.368 123.334 73.216 122.715 73.216C122.113 73.216 121.611 73.3627 121.211 73.656C120.817 73.9493 120.521 74.3573 120.323 74.88C120.126 75.3973 120.027 75.9947 120.027 76.672C120.027 77.3387 120.126 77.936 120.323 78.464C120.521 78.9867 120.819 79.3973 121.219 79.696C121.619 79.9947 122.126 80.144 122.739 80.144ZM132.056 81.24C131.197 81.24 130.464 81.0453 129.856 80.656C129.248 80.2667 128.781 79.728 128.456 79.04C128.131 78.352 127.968 77.5627 127.968 76.672C127.968 75.7653 128.133 74.9707 128.464 74.288C128.795 73.6053 129.264 73.0747 129.872 72.696C130.485 72.312 131.213 72.12 132.056 72.12C132.92 72.12 133.656 72.3147 134.264 72.704C134.877 73.088 135.344 73.624 135.664 74.312C135.989 74.9947 136.152 75.7813 136.152 76.672C136.152 77.5787 135.989 78.376 135.664 79.064C135.339 79.7467 134.869 80.28 134.256 80.664C133.643 81.048 132.909 81.24 132.056 81.24ZM132.056 80.112C133.016 80.112 133.731 79.7947 134.2 79.16C134.669 78.52 134.904 77.6907 134.904 76.672C134.904 75.6267 134.667 74.7947 134.192 74.176C133.723 73.5573 133.011 73.248 132.056 73.248C131.411 73.248 130.877 73.3947 130.456 73.688C130.04 73.976 129.728 74.3787 129.52 74.896C129.317 75.408 129.216 76 129.216 76.672C129.216 77.712 129.456 78.5467 129.936 79.176C130.416 79.8 131.123 80.112 132.056 80.112ZM137.917 81V72.36H138.973V74.44L138.765 74.168C138.861 73.912 138.986 73.6773 139.141 73.464C139.296 73.2453 139.464 73.0667 139.645 72.928C139.869 72.7307 140.13 72.5813 140.429 72.48C140.728 72.3733 141.029 72.312 141.333 72.296C141.637 72.2747 141.914 72.296 142.165 72.36V73.464C141.85 73.384 141.506 73.3653 141.133 73.408C140.76 73.4507 140.416 73.6 140.101 73.856C139.813 74.08 139.597 74.3493 139.453 74.664C139.309 74.9733 139.213 75.304 139.165 75.656C139.117 76.0027 139.093 76.3467 139.093 76.688V81H137.917ZM148.387 81C147.901 81.1013 147.421 81.1413 146.947 81.12C146.477 81.0987 146.056 80.9973 145.683 80.816C145.315 80.6347 145.035 80.352 144.843 79.968C144.688 79.648 144.603 79.3253 144.587 79C144.576 78.6693 144.571 78.2933 144.571 77.872V69.96H145.739V77.824C145.739 78.1867 145.741 78.4907 145.747 78.736C145.757 78.976 145.813 79.1893 145.915 79.376C146.107 79.7333 146.411 79.9467 146.827 80.016C147.248 80.0853 147.768 80.0693 148.387 79.968V81ZM142.723 73.368V72.36H148.387V73.368H142.723ZM157.292 81.24C156.487 81.24 155.761 81.1067 155.116 80.84C154.476 80.568 153.945 80.184 153.524 79.688C153.108 79.192 152.836 78.6027 152.708 77.92L153.908 77.72C154.1 78.4667 154.505 79.0533 155.124 79.48C155.743 79.9013 156.481 80.112 157.34 80.112C157.905 80.112 158.412 80.024 158.86 79.848C159.308 79.6667 159.66 79.4107 159.916 79.08C160.172 78.7493 160.3 78.3573 160.3 77.904C160.3 77.6053 160.247 77.352 160.14 77.144C160.033 76.9307 159.892 76.7547 159.716 76.616C159.54 76.4773 159.348 76.3627 159.14 76.272C158.932 76.176 158.729 76.0987 158.532 76.04L155.612 75.168C155.26 75.0667 154.935 74.9387 154.636 74.784C154.337 74.624 154.076 74.4347 153.852 74.216C153.633 73.992 153.463 73.7307 153.34 73.432C153.217 73.1333 153.156 72.792 153.156 72.408C153.156 71.7573 153.327 71.1947 153.668 70.72C154.009 70.2453 154.476 69.88 155.068 69.624C155.66 69.368 156.335 69.2427 157.092 69.248C157.86 69.248 158.545 69.384 159.148 69.656C159.756 69.928 160.257 70.3173 160.652 70.824C161.047 71.3253 161.308 71.92 161.436 72.608L160.204 72.832C160.124 72.3307 159.94 71.896 159.652 71.528C159.364 71.16 158.996 70.8773 158.548 70.68C158.105 70.4773 157.617 70.3733 157.084 70.368C156.567 70.368 156.105 70.456 155.7 70.632C155.3 70.8027 154.983 71.0373 154.748 71.336C154.513 71.6347 154.396 71.976 154.396 72.36C154.396 72.7493 154.503 73.0613 154.716 73.296C154.935 73.5307 155.201 73.7147 155.516 73.848C155.836 73.9813 156.145 74.0907 156.444 74.176L158.7 74.84C158.935 74.904 159.209 74.9973 159.524 75.12C159.844 75.2373 160.153 75.408 160.452 75.632C160.756 75.8507 161.007 76.1387 161.204 76.496C161.401 76.8533 161.5 77.3067 161.5 77.856C161.5 78.3893 161.393 78.8667 161.18 79.288C160.972 79.7093 160.676 80.064 160.292 80.352C159.913 80.64 159.468 80.8587 158.956 81.008C158.449 81.1627 157.895 81.24 157.292 81.24ZM167.855 81C167.37 81.1013 166.89 81.1413 166.415 81.12C165.946 81.0987 165.525 80.9973 165.151 80.816C164.783 80.6347 164.503 80.352 164.311 79.968C164.157 79.648 164.071 79.3253 164.055 79C164.045 78.6693 164.039 78.2933 164.039 77.872V69.96H165.207V77.824C165.207 78.1867 165.21 78.4907 165.215 78.736C165.226 78.976 165.282 79.1893 165.383 79.376C165.575 79.7333 165.879 79.9467 166.295 80.016C166.717 80.0853 167.237 80.0693 167.855 79.968V81ZM162.191 73.368V72.36H167.855V73.368H162.191ZM169.782 81V79.632H171.15V81H169.782ZM33.12 113V101.48H37.568C37.68 101.48 37.8053 101.485 37.944 101.496C38.088 101.501 38.232 101.517 38.376 101.544C38.9787 101.635 39.488 101.845 39.904 102.176C40.3253 102.501 40.6427 102.912 40.856 103.408C41.0747 103.904 41.184 104.453 41.184 105.056C41.184 105.653 41.0747 106.2 40.856 106.696C40.6373 107.192 40.3173 107.605 39.896 107.936C39.48 108.261 38.9733 108.469 38.376 108.56C38.232 108.581 38.088 108.597 37.944 108.608C37.8053 108.619 37.68 108.624 37.568 108.624H34.296V113H33.12ZM34.296 107.504H37.536C37.632 107.504 37.744 107.499 37.872 107.488C38 107.477 38.1253 107.459 38.248 107.432C38.6427 107.347 38.9653 107.184 39.216 106.944C39.472 106.704 39.6613 106.419 39.784 106.088C39.912 105.757 39.976 105.413 39.976 105.056C39.976 104.699 39.912 104.355 39.784 104.024C39.6613 103.688 39.472 103.4 39.216 103.16C38.9653 102.92 38.6427 102.757 38.248 102.672C38.1253 102.645 38 102.629 37.872 102.624C37.744 102.613 37.632 102.608 37.536 102.608H34.296V107.504ZM49.0163 113V108.592C49.0163 108.112 48.9709 107.672 48.8803 107.272C48.7896 106.867 48.6429 106.515 48.4403 106.216C48.2429 105.912 47.9843 105.677 47.6643 105.512C47.3496 105.347 46.9656 105.264 46.5123 105.264C46.0963 105.264 45.7283 105.336 45.4083 105.48C45.0936 105.624 44.8269 105.832 44.6083 106.104C44.3949 106.371 44.2323 106.696 44.1203 107.08C44.0083 107.464 43.9523 107.901 43.9523 108.392L43.1203 108.208C43.1203 107.323 43.2749 106.579 43.5843 105.976C43.8936 105.373 44.3203 104.917 44.8643 104.608C45.4083 104.299 46.0323 104.144 46.7363 104.144C47.2536 104.144 47.7043 104.224 48.0883 104.384C48.4776 104.544 48.8056 104.76 49.0723 105.032C49.3443 105.304 49.5629 105.616 49.7283 105.968C49.8936 106.315 50.0136 106.685 50.0883 107.08C50.1629 107.469 50.2003 107.859 50.2003 108.248V113H49.0163ZM42.7683 113V101.48H43.8323V107.984H43.9523V113H42.7683ZM52.4363 102.72V101.4H53.6123V102.72H52.4363ZM52.4363 113V104.36H53.6123V113H52.4363ZM56.1706 113V101.24H57.3466V113H56.1706ZM59.905 113V101.24H61.081V113H59.905ZM63.6394 102.72V101.4H64.8154V102.72H63.6394ZM63.6394 113V104.36H64.8154V113H63.6394ZM71.0938 113.24C70.2991 113.24 69.6271 113.04 69.0778 112.64C68.5284 112.235 68.1124 111.688 67.8298 111C67.5471 110.307 67.4058 109.531 67.4058 108.672C67.4058 107.797 67.5471 107.019 67.8298 106.336C68.1178 105.648 68.5391 105.107 69.0938 104.712C69.6484 104.317 70.3311 104.12 71.1418 104.12C71.9311 104.12 72.6084 104.32 73.1738 104.72C73.7391 105.12 74.1711 105.664 74.4698 106.352C74.7738 107.04 74.9258 107.813 74.9258 108.672C74.9258 109.536 74.7738 110.312 74.4698 111C74.1658 111.688 73.7284 112.235 73.1578 112.64C72.5871 113.04 71.8991 113.24 71.0938 113.24ZM67.2058 116.84V104.36H68.2618V110.864H68.3898V116.84H67.2058ZM70.9738 112.144C71.5764 112.144 72.0778 111.992 72.4778 111.688C72.8778 111.384 73.1764 110.971 73.3738 110.448C73.5764 109.92 73.6778 109.328 73.6778 108.672C73.6778 108.021 73.5791 107.435 73.3818 106.912C73.1844 106.389 72.8831 105.976 72.4778 105.672C72.0778 105.368 71.5684 105.216 70.9498 105.216C70.3471 105.216 69.8458 105.363 69.4458 105.656C69.0511 105.949 68.7551 106.357 68.5578 106.88C68.3604 107.397 68.2618 107.995 68.2618 108.672C68.2618 109.339 68.3604 109.936 68.5578 110.464C68.7551 110.987 69.0538 111.397 69.4538 111.696C69.8538 111.995 70.3604 112.144 70.9738 112.144ZM79.8284 113.232C78.815 113.232 77.9804 113.013 77.3244 112.576C76.6737 112.139 76.2737 111.531 76.1244 110.752L77.3244 110.552C77.4524 111.043 77.743 111.435 78.1964 111.728C78.655 112.016 79.2204 112.16 79.8924 112.16C80.5484 112.16 81.0657 112.024 81.4444 111.752C81.823 111.475 82.0124 111.099 82.0124 110.624C82.0124 110.357 81.951 110.141 81.8284 109.976C81.711 109.805 81.4684 109.648 81.1004 109.504C80.7324 109.36 80.183 109.189 79.4524 108.992C78.6684 108.779 78.055 108.565 77.6124 108.352C77.1697 108.139 76.855 107.893 76.6684 107.616C76.4817 107.333 76.3884 106.989 76.3884 106.584C76.3884 106.093 76.527 105.664 76.8044 105.296C77.0817 104.923 77.4657 104.635 77.9564 104.432C78.447 104.224 79.0177 104.12 79.6684 104.12C80.319 104.12 80.9004 104.227 81.4124 104.44C81.9297 104.648 82.3457 104.941 82.6604 105.32C82.975 105.699 83.1617 106.139 83.2204 106.64L82.0204 106.856C81.9404 106.349 81.687 105.949 81.2604 105.656C80.839 105.357 80.303 105.203 79.6524 105.192C79.039 105.176 78.5404 105.293 78.1564 105.544C77.7724 105.789 77.5804 106.117 77.5804 106.528C77.5804 106.757 77.6497 106.955 77.7884 107.12C77.927 107.28 78.1777 107.432 78.5404 107.576C78.9084 107.72 79.431 107.877 80.1084 108.048C80.903 108.251 81.527 108.464 81.9804 108.688C82.4337 108.912 82.7564 109.176 82.9484 109.48C83.1404 109.784 83.2364 110.16 83.2364 110.608C83.2364 111.424 82.9324 112.067 82.3244 112.536C81.7217 113 80.8897 113.232 79.8284 113.232ZM88.8906 113.24C88.096 113.24 87.424 113.04 86.8746 112.64C86.3253 112.235 85.9093 111.688 85.6266 111C85.344 110.307 85.2026 109.531 85.2026 108.672C85.2026 107.797 85.344 107.019 85.6266 106.336C85.9146 105.648 86.336 105.107 86.8906 104.712C87.4453 104.317 88.128 104.12 88.9386 104.12C89.728 104.12 90.4053 104.32 90.9706 104.72C91.536 105.12 91.968 105.664 92.2666 106.352C92.5706 107.04 92.7226 107.813 92.7226 108.672C92.7226 109.536 92.5706 110.312 92.2666 111C91.9626 111.688 91.5253 112.235 90.9546 112.64C90.384 113.04 89.696 113.24 88.8906 113.24ZM85.0026 113V101.48H86.1866V106.496H86.0586V113H85.0026ZM88.7706 112.144C89.3733 112.144 89.8746 111.992 90.2746 111.688C90.6746 111.384 90.9733 110.971 91.1706 110.448C91.3733 109.92 91.4746 109.328 91.4746 108.672C91.4746 108.021 91.376 107.435 91.1786 106.912C90.9813 106.389 90.68 105.976 90.2746 105.672C89.8746 105.368 89.3653 105.216 88.7466 105.216C88.144 105.216 87.6426 105.363 87.2426 105.656C86.848 105.949 86.552 106.357 86.3546 106.88C86.1573 107.397 86.0586 107.995 86.0586 108.672C86.0586 109.339 86.1573 109.936 86.3546 110.464C86.552 110.987 86.8506 111.397 87.2506 111.696C87.6506 111.995 88.1573 112.144 88.7706 112.144ZM97.7834 113.216C97.266 113.216 96.8127 113.136 96.4234 112.976C96.0394 112.816 95.7114 112.6 95.4394 112.328C95.1727 112.056 94.9567 111.747 94.7914 111.4C94.626 111.048 94.506 110.677 94.4314 110.288C94.3567 109.893 94.3194 109.501 94.3194 109.112V104.36H95.5034V108.768C95.5034 109.243 95.5487 109.683 95.6394 110.088C95.73 110.493 95.874 110.848 96.0714 111.152C96.274 111.451 96.5327 111.683 96.8474 111.848C97.1674 112.013 97.554 112.096 98.0074 112.096C98.4234 112.096 98.7887 112.024 99.1034 111.88C99.4234 111.736 99.69 111.531 99.9034 111.264C100.122 110.992 100.287 110.664 100.399 110.28C100.511 109.891 100.567 109.453 100.567 108.968L101.399 109.152C101.399 110.037 101.245 110.781 100.935 111.384C100.626 111.987 100.199 112.443 99.6554 112.752C99.1114 113.061 98.4874 113.216 97.7834 113.216ZM100.687 113V110.872H100.567V104.36H101.743V113H100.687ZM103.979 113V104.36H105.035V106.44L104.827 106.168C104.923 105.912 105.049 105.677 105.203 105.464C105.358 105.245 105.526 105.067 105.707 104.928C105.931 104.731 106.193 104.581 106.491 104.48C106.79 104.373 107.091 104.312 107.395 104.296C107.699 104.275 107.977 104.296 108.227 104.36V105.464C107.913 105.384 107.569 105.365 107.195 105.408C106.822 105.451 106.478 105.6 106.163 105.856C105.875 106.08 105.659 106.349 105.515 106.664C105.371 106.973 105.275 107.304 105.227 107.656C105.179 108.003 105.155 108.347 105.155 108.688V113H103.979ZM112.865 117.08C112.422 117.08 111.985 117.013 111.553 116.88C111.126 116.752 110.731 116.547 110.368 116.264C110.006 115.987 109.702 115.624 109.457 115.176L110.521 114.584C110.761 115.064 111.097 115.408 111.529 115.616C111.966 115.829 112.411 115.936 112.865 115.936C113.489 115.936 113.993 115.819 114.377 115.584C114.766 115.355 115.049 115.013 115.225 114.56C115.401 114.107 115.486 113.541 115.481 112.864V110.56H115.617V104.36H116.665V112.88C116.665 113.125 116.657 113.36 116.641 113.584C116.63 113.813 116.606 114.037 116.569 114.256C116.467 114.901 116.257 115.432 115.937 115.848C115.622 116.264 115.206 116.573 114.689 116.776C114.177 116.979 113.569 117.08 112.865 117.08ZM112.785 113.24C111.979 113.24 111.291 113.04 110.721 112.64C110.15 112.235 109.713 111.688 109.409 111C109.105 110.312 108.953 109.536 108.953 108.672C108.953 107.813 109.102 107.04 109.401 106.352C109.705 105.664 110.139 105.12 110.705 104.72C111.27 104.32 111.947 104.12 112.737 104.12C113.547 104.12 114.23 104.317 114.785 104.712C115.339 105.107 115.758 105.648 116.041 106.336C116.329 107.019 116.473 107.797 116.473 108.672C116.473 109.531 116.331 110.307 116.049 111C115.766 111.688 115.35 112.235 114.801 112.64C114.251 113.04 113.579 113.24 112.785 113.24ZM112.905 112.144C113.518 112.144 114.025 111.995 114.425 111.696C114.825 111.397 115.123 110.987 115.321 110.464C115.518 109.936 115.617 109.339 115.617 108.672C115.617 107.995 115.518 107.397 115.321 106.88C115.123 106.357 114.825 105.949 114.425 105.656C114.03 105.363 113.531 105.216 112.929 105.216C112.31 105.216 111.798 105.368 111.393 105.672C110.987 105.976 110.686 106.389 110.489 106.912C110.297 107.435 110.201 108.021 110.201 108.672C110.201 109.328 110.299 109.92 110.497 110.448C110.699 110.971 111.001 111.384 111.401 111.688C111.801 111.992 112.302 112.144 112.905 112.144ZM118.741 114.672L118.813 114.088C119.027 114.104 119.181 114.061 119.277 113.96C119.373 113.859 119.432 113.723 119.453 113.552C119.475 113.381 119.48 113.197 119.469 113H118.741V111.312H120.109V113.32C120.109 113.811 119.984 114.179 119.733 114.424C119.488 114.669 119.157 114.752 118.741 114.672ZM126.354 113V101.48H127.538L133.882 110.92V101.48H135.066V113H133.882L127.538 103.552V113H126.354ZM139.276 113.232C138.508 113.232 137.849 113.019 137.3 112.592C136.75 112.165 136.38 111.595 136.188 110.88L137.363 110.6C137.46 111.021 137.681 111.379 138.028 111.672C138.38 111.96 138.793 112.104 139.268 112.104C139.566 112.104 139.868 112.032 140.172 111.888C140.481 111.744 140.724 111.507 140.9 111.176C141.017 110.947 141.084 110.699 141.1 110.432C141.121 110.16 141.132 109.835 141.132 109.456V101.48H142.316V109.456C142.316 109.776 142.313 110.067 142.308 110.328C142.302 110.584 142.273 110.832 142.22 111.072C142.172 111.307 142.078 111.544 141.94 111.784C141.662 112.269 141.289 112.632 140.82 112.872C140.356 113.112 139.841 113.232 139.276 113.232ZM151.693 113.24C150.983 113.24 150.343 113.075 149.773 112.744C149.207 112.413 148.759 111.965 148.429 111.4C148.098 110.829 147.933 110.189 147.933 109.48V105C147.933 104.291 148.098 103.653 148.429 103.088C148.759 102.517 149.207 102.067 149.773 101.736C150.343 101.405 150.983 101.24 151.693 101.24C152.402 101.24 153.039 101.405 153.605 101.736C154.175 102.067 154.626 102.517 154.957 103.088C155.287 103.653 155.453 104.291 155.453 105V109.48C155.453 110.189 155.287 110.829 154.957 111.4C154.626 111.965 154.175 112.413 153.605 112.744C153.039 113.075 152.402 113.24 151.693 113.24ZM151.693 112.104C152.167 112.104 152.599 111.989 152.989 111.76C153.378 111.525 153.687 111.213 153.917 110.824C154.146 110.435 154.261 110.005 154.261 109.536V104.944C154.261 104.469 154.146 104.037 153.917 103.648C153.687 103.259 153.378 102.949 152.989 102.72C152.599 102.485 152.167 102.368 151.693 102.368C151.218 102.368 150.786 102.485 150.397 102.72C150.007 102.949 149.698 103.259 149.469 103.648C149.239 104.037 149.125 104.469 149.125 104.944V109.536C149.125 110.005 149.239 110.435 149.469 110.824C149.698 111.213 150.007 111.525 150.397 111.76C150.786 111.989 151.218 112.104 151.693 112.104ZM161.21 113.24C160.49 113.24 159.853 113.096 159.298 112.808C158.749 112.52 158.317 112.117 158.002 111.6C157.693 111.077 157.538 110.467 157.538 109.768C157.538 109.053 157.711 108.419 158.058 107.864C158.405 107.304 158.933 106.88 159.642 106.592L159.626 107.056C159.034 106.837 158.583 106.48 158.274 105.984C157.965 105.488 157.81 104.939 157.81 104.336C157.81 103.696 157.957 103.147 158.25 102.688C158.543 102.224 158.943 101.867 159.45 101.616C159.962 101.365 160.549 101.24 161.21 101.24C161.871 101.24 162.458 101.365 162.97 101.616C163.482 101.867 163.885 102.224 164.178 102.688C164.471 103.147 164.618 103.696 164.618 104.336C164.618 104.939 164.469 105.485 164.17 105.976C163.877 106.467 163.426 106.827 162.818 107.056L162.778 106.592C163.487 106.875 164.018 107.296 164.37 107.856C164.727 108.416 164.906 109.053 164.906 109.768C164.906 110.467 164.749 111.077 164.434 111.6C164.119 112.117 163.685 112.52 163.13 112.808C162.575 113.096 161.935 113.24 161.21 113.24ZM161.21 112.112C161.935 112.112 162.525 111.912 162.978 111.512C163.431 111.107 163.658 110.525 163.658 109.768C163.658 109 163.434 108.419 162.986 108.024C162.538 107.624 161.946 107.424 161.21 107.424C160.474 107.424 159.885 107.624 159.442 108.024C158.999 108.419 158.778 109 158.778 109.768C158.778 110.525 159.002 111.107 159.45 111.512C159.898 111.912 160.485 112.112 161.21 112.112ZM161.21 106.288C161.85 106.288 162.37 106.125 162.77 105.8C163.17 105.469 163.37 104.981 163.37 104.336C163.37 103.691 163.17 103.208 162.77 102.888C162.37 102.563 161.85 102.4 161.21 102.4C160.57 102.4 160.05 102.563 159.65 102.888C159.255 103.208 159.058 103.691 159.058 104.336C159.058 104.981 159.255 105.469 159.65 105.8C160.05 106.125 160.57 106.288 161.21 106.288ZM170.491 113.24C169.771 113.24 169.134 113.096 168.579 112.808C168.03 112.52 167.598 112.117 167.283 111.6C166.974 111.077 166.819 110.467 166.819 109.768C166.819 109.053 166.993 108.419 167.339 107.864C167.686 107.304 168.214 106.88 168.923 106.592L168.907 107.056C168.315 106.837 167.865 106.48 167.555 105.984C167.246 105.488 167.091 104.939 167.091 104.336C167.091 103.696 167.238 103.147 167.531 102.688C167.825 102.224 168.225 101.867 168.731 101.616C169.243 101.365 169.83 101.24 170.491 101.24C171.153 101.24 171.739 101.365 172.251 101.616C172.763 101.867 173.166 102.224 173.459 102.688C173.753 103.147 173.899 103.696 173.899 104.336C173.899 104.939 173.75 105.485 173.451 105.976C173.158 106.467 172.707 106.827 172.099 107.056L172.059 106.592C172.769 106.875 173.299 107.296 173.651 107.856C174.009 108.416 174.187 109.053 174.187 109.768C174.187 110.467 174.03 111.077 173.715 111.6C173.401 112.117 172.966 112.52 172.411 112.808C171.857 113.096 171.217 113.24 170.491 113.24ZM170.491 112.112C171.217 112.112 171.806 111.912 172.259 111.512C172.713 111.107 172.939 110.525 172.939 109.768C172.939 109 172.715 108.419 172.267 108.024C171.819 107.624 171.227 107.424 170.491 107.424C169.755 107.424 169.166 107.624 168.723 108.024C168.281 108.419 168.059 109 168.059 109.768C168.059 110.525 168.283 111.107 168.731 111.512C169.179 111.912 169.766 112.112 170.491 112.112ZM170.491 106.288C171.131 106.288 171.651 106.125 172.051 105.8C172.451 105.469 172.651 104.981 172.651 104.336C172.651 103.691 172.451 103.208 172.051 102.888C171.651 102.563 171.131 102.4 170.491 102.4C169.851 102.4 169.331 102.563 168.931 102.888C168.537 103.208 168.339 103.691 168.339 104.336C168.339 104.981 168.537 105.469 168.931 105.8C169.331 106.125 169.851 106.288 170.491 106.288ZM180.157 113.24C179.437 113.24 178.781 113.067 178.189 112.72C177.602 112.368 177.133 111.893 176.781 111.296C176.434 110.693 176.261 110.016 176.261 109.264V105.272C176.261 104.499 176.434 103.811 176.781 103.208C177.127 102.6 177.599 102.123 178.197 101.776C178.799 101.424 179.482 101.248 180.245 101.248C180.901 101.248 181.509 101.392 182.069 101.68C182.634 101.968 183.095 102.371 183.453 102.888L182.549 103.632C182.303 103.248 181.978 102.941 181.573 102.712C181.167 102.483 180.725 102.368 180.245 102.368C179.706 102.368 179.226 102.499 178.805 102.76C178.383 103.021 178.053 103.365 177.813 103.792C177.573 104.213 177.453 104.672 177.453 105.168V107.68L177.157 107.344C177.493 106.816 177.933 106.389 178.477 106.064C179.026 105.739 179.623 105.576 180.269 105.576C180.983 105.576 181.626 105.747 182.197 106.088C182.767 106.424 183.221 106.88 183.557 107.456C183.893 108.032 184.061 108.677 184.061 109.392C184.061 110.101 183.882 110.747 183.525 111.328C183.173 111.909 182.701 112.373 182.109 112.72C181.522 113.067 180.871 113.24 180.157 113.24ZM180.157 112.096C180.658 112.096 181.114 111.976 181.525 111.736C181.941 111.496 182.269 111.171 182.509 110.76C182.754 110.349 182.877 109.893 182.877 109.392C182.877 108.891 182.754 108.435 182.509 108.024C182.269 107.608 181.943 107.28 181.533 107.04C181.122 106.795 180.666 106.672 180.165 106.672C179.663 106.672 179.207 106.795 178.797 107.04C178.386 107.28 178.058 107.608 177.813 108.024C177.573 108.435 177.453 108.891 177.453 109.392C177.453 109.888 177.573 110.341 177.813 110.752C178.053 111.163 178.378 111.491 178.789 111.736C179.199 111.976 179.655 112.096 180.157 112.096ZM189.582 113.24C188.985 113.24 188.433 113.117 187.927 112.872C187.42 112.627 186.988 112.288 186.631 111.856C186.273 111.424 186.017 110.928 185.863 110.368L186.991 110.064C187.092 110.48 187.276 110.84 187.543 111.144C187.809 111.443 188.121 111.675 188.479 111.84C188.841 112.005 189.22 112.088 189.615 112.088C190.127 112.088 190.585 111.965 190.991 111.72C191.401 111.469 191.727 111.139 191.967 110.728C192.207 110.317 192.327 109.867 192.327 109.376C192.327 108.869 192.201 108.413 191.951 108.008C191.7 107.597 191.369 107.272 190.959 107.032C190.548 106.792 190.1 106.672 189.615 106.672C189.071 106.672 188.601 106.792 188.207 107.032C187.812 107.267 187.497 107.563 187.263 107.92L186.191 107.472L186.543 101.48H192.695V102.608H187.062L187.647 102.056L187.335 107.168L187.039 106.776C187.369 106.397 187.769 106.101 188.239 105.888C188.708 105.675 189.201 105.568 189.719 105.568C190.428 105.568 191.068 105.739 191.639 106.08C192.209 106.416 192.663 106.872 192.999 107.448C193.335 108.024 193.503 108.667 193.503 109.376C193.503 110.08 193.324 110.725 192.967 111.312C192.609 111.893 192.135 112.36 191.543 112.712C190.951 113.064 190.297 113.24 189.582 113.24Z" fill="#333333" fill-opacity="0.5"/>
<path d="M32.4 49L36.94 34.6H40.47L45.01 49H42.53L38.41 36.08H38.95L34.88 49H32.4ZM34.93 45.88V43.63H42.49V45.88H34.93ZM51.148 49.3C50.1546 49.3 49.288 49.05 48.548 48.55C47.808 48.05 47.2346 47.37 46.828 46.51C46.4213 45.65 46.218 44.68 46.218 43.6C46.218 42.5067 46.4213 41.5333 46.828 40.68C47.2413 39.82 47.8246 39.1433 48.578 38.65C49.3313 38.15 50.218 37.9 51.238 37.9C52.2646 37.9 53.1246 38.15 53.818 38.65C54.518 39.1433 55.048 39.82 55.408 40.68C55.768 41.54 55.948 42.5133 55.948 43.6C55.948 44.6733 55.768 45.6433 55.408 46.51C55.048 47.37 54.5113 48.05 53.798 48.55C53.0846 49.05 52.2013 49.3 51.148 49.3ZM51.518 47.14C52.1646 47.14 52.6846 46.9933 53.078 46.7C53.478 46.4 53.768 45.9833 53.948 45.45C54.1346 44.9167 54.228 44.3 54.228 43.6C54.228 42.8933 54.1346 42.2767 53.948 41.75C53.768 41.2167 53.4846 40.8033 53.098 40.51C52.7113 40.21 52.2113 40.06 51.598 40.06C50.9513 40.06 50.418 40.22 49.998 40.54C49.578 40.8533 49.268 41.28 49.068 41.82C48.868 42.3533 48.768 42.9467 48.768 43.6C48.768 44.26 48.8646 44.86 49.058 45.4C49.258 45.9333 49.5613 46.3567 49.968 46.67C50.3746 46.9833 50.8913 47.14 51.518 47.14ZM54.228 49V41.42H53.928V34.6H56.358V49H54.228ZM63.4917 49.3C62.4984 49.3 61.6317 49.05 60.8917 48.55C60.1517 48.05 59.5784 47.37 59.1717 46.51C58.7651 45.65 58.5617 44.68 58.5617 43.6C58.5617 42.5067 58.7651 41.5333 59.1717 40.68C59.5851 39.82 60.1684 39.1433 60.9217 38.65C61.6751 38.15 62.5617 37.9 63.5817 37.9C64.6084 37.9 65.4684 38.15 66.1617 38.65C66.8617 39.1433 67.3917 39.82 67.7517 40.68C68.1117 41.54 68.2917 42.5133 68.2917 43.6C68.2917 44.6733 68.1117 45.6433 67.7517 46.51C67.3917 47.37 66.8551 48.05 66.1417 48.55C65.4284 49.05 64.5451 49.3 63.4917 49.3ZM63.8617 47.14C64.5084 47.14 65.0284 46.9933 65.4217 46.7C65.8217 46.4 66.1117 45.9833 66.2917 45.45C66.4784 44.9167 66.5717 44.3 66.5717 43.6C66.5717 42.8933 66.4784 42.2767 66.2917 41.75C66.1117 41.2167 65.8284 40.8033 65.4417 40.51C65.0551 40.21 64.5551 40.06 63.9417 40.06C63.2951 40.06 62.7617 40.22 62.3417 40.54C61.9217 40.8533 61.6117 41.28 61.4117 41.82C61.2117 42.3533 61.1117 42.9467 61.1117 43.6C61.1117 44.26 61.2084 44.86 61.4017 45.4C61.6017 45.9333 61.9051 46.3567 62.3117 46.67C62.7184 46.9833 63.2351 47.14 63.8617 47.14ZM66.5717 49V41.42H66.2717V34.6H68.7017V49H66.5717ZM71.5055 49V38.2H73.6355V40.83L73.3755 40.49C73.5088 40.13 73.6855 39.8033 73.9055 39.51C74.1321 39.21 74.4021 38.9633 74.7155 38.77C74.9821 38.59 75.2755 38.45 75.5955 38.35C75.9221 38.2433 76.2555 38.18 76.5955 38.16C76.9355 38.1333 77.2655 38.1467 77.5855 38.2V40.45C77.2655 40.3567 76.8955 40.3267 76.4755 40.36C76.0621 40.3933 75.6888 40.51 75.3555 40.71C75.0221 40.89 74.7488 41.12 74.5355 41.4C74.3288 41.68 74.1755 42 74.0755 42.36C73.9755 42.7133 73.9255 43.0967 73.9255 43.51V49H71.5055ZM84.2084 49.3C83.1151 49.3 82.1551 49.0633 81.3284 48.59C80.5018 48.1167 79.8551 47.46 79.3884 46.62C78.9284 45.78 78.6984 44.8133 78.6984 43.72C78.6984 42.54 78.9251 41.5167 79.3784 40.65C79.8318 39.7767 80.4618 39.1 81.2684 38.62C82.0751 38.14 83.0084 37.9 84.0684 37.9C85.1884 37.9 86.1384 38.1633 86.9184 38.69C87.7051 39.21 88.2884 39.9467 88.6684 40.9C89.0484 41.8533 89.1918 42.9767 89.0984 44.27H86.7084V43.39C86.7018 42.2167 86.4951 41.36 86.0884 40.82C85.6818 40.28 85.0418 40.01 84.1684 40.01C83.1818 40.01 82.4484 40.3167 81.9684 40.93C81.4884 41.5367 81.2484 42.4267 81.2484 43.6C81.2484 44.6933 81.4884 45.54 81.9684 46.14C82.4484 46.74 83.1484 47.04 84.0684 47.04C84.6618 47.04 85.1718 46.91 85.5984 46.65C86.0318 46.3833 86.3651 46 86.5984 45.5L88.9784 46.22C88.5651 47.1933 87.9251 47.95 87.0584 48.49C86.1984 49.03 85.2484 49.3 84.2084 49.3ZM80.4884 44.27V42.45H87.9184V44.27H80.4884ZM95.4997 49.3C94.1664 49.3 93.083 49 92.2497 48.4C91.4164 47.8 90.9097 46.9567 90.7297 45.87L93.1897 45.49C93.3164 46.0233 93.5964 46.4433 94.0297 46.75C94.463 47.0567 95.0097 47.21 95.6697 47.21C96.2497 47.21 96.6964 47.0967 97.0097 46.87C97.3297 46.6367 97.4897 46.32 97.4897 45.92C97.4897 45.6733 97.4297 45.4767 97.3097 45.33C97.1964 45.1767 96.943 45.03 96.5497 44.89C96.1564 44.75 95.553 44.5733 94.7397 44.36C93.833 44.12 93.113 43.8633 92.5797 43.59C92.0464 43.31 91.663 42.98 91.4297 42.6C91.1964 42.22 91.0797 41.76 91.0797 41.22C91.0797 40.5467 91.2564 39.96 91.6097 39.46C91.963 38.96 92.4564 38.5767 93.0897 38.31C93.723 38.0367 94.4697 37.9 95.3297 37.9C96.1697 37.9 96.913 38.03 97.5597 38.29C98.213 38.55 98.7397 38.92 99.1397 39.4C99.5397 39.88 99.7864 40.4433 99.8797 41.09L97.4197 41.53C97.3597 41.07 97.1497 40.7067 96.7897 40.44C96.4364 40.1733 95.963 40.0233 95.3697 39.99C94.803 39.9567 94.3464 40.0433 93.9997 40.25C93.653 40.45 93.4797 40.7333 93.4797 41.1C93.4797 41.3067 93.5497 41.4833 93.6897 41.63C93.8297 41.7767 94.1097 41.9233 94.5297 42.07C94.9564 42.2167 95.5897 42.3967 96.4297 42.61C97.2897 42.83 97.9764 43.0833 98.4897 43.37C99.0097 43.65 99.383 43.9867 99.6097 44.38C99.843 44.7733 99.9597 45.25 99.9597 45.81C99.9597 46.8967 99.563 47.75 98.7697 48.37C97.983 48.99 96.893 49.3 95.4997 49.3ZM106.32 49.3C104.987 49.3 103.903 49 103.07 48.4C102.237 47.8 101.73 46.9567 101.55 45.87L104.01 45.49C104.137 46.0233 104.417 46.4433 104.85 46.75C105.283 47.0567 105.83 47.21 106.49 47.21C107.07 47.21 107.517 47.0967 107.83 46.87C108.15 46.6367 108.31 46.32 108.31 45.92C108.31 45.6733 108.25 45.4767 108.13 45.33C108.017 45.1767 107.763 45.03 107.37 44.89C106.977 44.75 106.373 44.5733 105.56 44.36C104.653 44.12 103.933 43.8633 103.4 43.59C102.867 43.31 102.483 42.98 102.25 42.6C102.017 42.22 101.9 41.76 101.9 41.22C101.9 40.5467 102.077 39.96 102.43 39.46C102.783 38.96 103.277 38.5767 103.91 38.31C104.543 38.0367 105.29 37.9 106.15 37.9C106.99 37.9 107.733 38.03 108.38 38.29C109.033 38.55 109.56 38.92 109.96 39.4C110.36 39.88 110.607 40.4433 110.7 41.09L108.24 41.53C108.18 41.07 107.97 40.7067 107.61 40.44C107.257 40.1733 106.783 40.0233 106.19 39.99C105.623 39.9567 105.167 40.0433 104.82 40.25C104.473 40.45 104.3 40.7333 104.3 41.1C104.3 41.3067 104.37 41.4833 104.51 41.63C104.65 41.7767 104.93 41.9233 105.35 42.07C105.777 42.2167 106.41 42.3967 107.25 42.61C108.11 42.83 108.797 43.0833 109.31 43.37C109.83 43.65 110.203 43.9867 110.43 44.38C110.663 44.7733 110.78 45.25 110.78 45.81C110.78 46.8967 110.383 47.75 109.59 48.37C108.803 48.99 107.713 49.3 106.32 49.3Z" fill="#EF633E"/>
</g>
<defs>
<filter id="filter0_d_0_379" x="-48" y="-24" width="334" height="240" filterUnits="userSpaceOnUse" color-interpolation-filters="sRGB">
<feFlood flood-opacity="0" result="BackgroundImageFix"/>
<feColorMatrix in="SourceAlpha" type="matrix" values="0 0 0 0 0 0 0 0 0 0 0 0 0 0 0 0 0 0 127 0" result="hardAlpha"/>
<feOffset dy="24"/>
<feGaussianBlur stdDeviation="24"/>
<feColorMatrix type="matrix" values="0 0 0 0 0 0 0 0 0 0.0948107 0 0 0 0 0.205357 0 0 0 0.080899 0"/>
<feBlend mode="normal" in2="BackgroundImageFix" result="effect1_dropShadow_0_379"/>
<feBlend mode="normal" in="SourceGraphic" in2="effect1_dropShadow_0_379" result="shape"/>
</filter>
<clipPath id="clip0_0_379">
<rect width="238" height="144" fill="white"/>
</clipPath>
</defs>
</svg>
