<svg width="64" height="64" fill="none" xmlns="http://www.w3.org/2000/svg"><g clip-path="url(#clip0_0_145)"><g filter="url(#filter0_d_0_145)"><path d="M32 64c17.673 0 32-14.327 32-32C64 14.327 49.673 0 32 0 14.327 0 0 14.327 0 32c0 17.673 14.327 32 32 32z" fill="url(#paint0_linear_0_145)"/></g><path d="M22.937 38.52c-.384 0-.712.2-.984.6h-.36v-4.56h.36c.304 1.536.784 2.624 1.44 3.264.656.64 1.552.968 2.688.984V35.4c-1.792-.816-2.952-1.544-3.48-2.184-.64-.768-.96-1.632-.96-2.592 0-1.232.424-2.176 1.272-2.832.864-.656 1.96-.984 3.288-.984h.096V25.32h.48v1.536c.288.032.768.136 1.44.312.688.176 1.152.264 1.392.264.256 0 .448-.048.576-.144.128-.096.216-.248.264-.456h.384v4.152h-.384c-.144-1.072-.552-1.936-1.224-2.592-.672-.656-1.488-1.032-2.448-1.128v3.552c.608.24 1.24.536 1.896.888.656.352 1.056.592 1.2.72.144.128.336.304.576.528.256.224.44.44.552.648.272.56.408 1.112.408 1.656 0 1.344-.448 2.336-1.344 2.976-.88.64-2.048.976-3.504 1.008v1.248h-.48V39.24a7.59 7.59 0 01-1.944-.384c-.688-.224-1.088-.336-1.2-.336zm1.488-9.936c0 .736.624 1.408 1.872 2.016v-3.36c-.544.016-.992.136-1.344.36-.352.224-.528.552-.528.984zm4.032 8.712c0-.32-.16-.6-.48-.84-.32-.256-.792-.536-1.416-.84v3.192c1.264-.096 1.896-.6 1.896-1.512zm4.626-9.552h7.8c.448 0 .768-.088.96-.264.192-.176.304-.464.336-.864h.432v2.328c0 2.112-.48 3.816-1.44 5.112-.4.528-.8 1.072-1.2 1.632-.384.544-.72 1.28-1.008 2.208-.272.928-.408 2.032-.408 3.312 0 .768-.176 1.4-.528 1.896-.352.496-.904.744-1.656.744-.736 0-1.312-.248-1.728-.744-.416-.48-.624-1.112-.624-1.896 0-.912.184-1.664.552-2.256.192-.32.368-.592.528-.816.16-.224.416-.472.768-.744.352-.288.616-.496.792-.624.192-.128.512-.336.96-.624l1.176-.768c.32-.224.624-.456.912-.696.304-.256.64-.576 1.008-.96.72-.768 1.176-1.824 1.368-3.168-.064.08-.16.184-.288.312-.128.128-.472.296-1.032.504-.56.208-1.2.312-1.92.312h-4.056c-.448 0-.768.088-.96.264-.192.176-.304.464-.336.864h-.408v-5.064z" fill="#333"/></g><defs><linearGradient id="paint0_linear_0_145" x1="0" y1="0" x2="0" y2="64" gradientUnits="userSpaceOnUse"><stop stop-color="#E4FFFC"/><stop offset="1" stop-color="#C5FFF8"/></linearGradient><clipPath id="clip0_0_145"><path fill="#fff" d="M0 0h64v64H0z"/></clipPath><filter id="filter0_d_0_145" x="-24" y="-8" width="112" height="112" filterUnits="userSpaceOnUse" color-interpolation-filters="sRGB"><feFlood flood-opacity="0" result="BackgroundImageFix"/><feColorMatrix in="SourceAlpha" values="0 0 0 0 0 0 0 0 0 0 0 0 0 0 0 0 0 0 127 0" result="hardAlpha"/><feOffset dy="16"/><feGaussianBlur stdDeviation="12"/><feColorMatrix values="0 0 0 0 0 0 0 0 0 0.0941176 0 0 0 0 0.203922 0 0 0 0.08 0"/><feBlend in2="BackgroundImageFix" result="effect1_dropShadow_0_145"/><feBlend in="SourceGraphic" in2="effect1_dropShadow_0_145" result="shape"/></filter></defs></svg>