<svg width="366" height="496" fill="none" xmlns="http://www.w3.org/2000/svg"><g filter="url(#filter0_d_0_67)"><path d="M48 62.4c0-13.441 0-20.162 2.616-25.296a24 24 0 0110.488-10.488C66.238 24 72.96 24 86.4 24h193.2c13.441 0 20.162 0 25.296 2.616a23.999 23.999 0 0110.488 10.488C318 42.238 318 48.96 318 62.4V264c0 56.005 0 84.008-10.899 105.399a100.01 100.01 0 01-43.702 43.702C242.008 424 214.005 424 158 424H86.4c-13.441 0-20.162 0-25.296-2.616a23.999 23.999 0 01-10.488-10.488C48 405.762 48 399.041 48 385.6V62.4z" fill="#fff"/></g><defs><filter id="filter0_d_0_67" x="0" y="0" width="366" height="496" filterUnits="userSpaceOnUse" color-interpolation-filters="sRGB"><feFlood flood-opacity="0" result="BackgroundImageFix"/><feColorMatrix in="SourceAlpha" values="0 0 0 0 0 0 0 0 0 0 0 0 0 0 0 0 0 0 127 0" result="hardAlpha"/><feOffset dy="24"/><feGaussianBlur stdDeviation="24"/><feColorMatrix values="0 0 0 0 0 0 0 0 0 0.0948107 0 0 0 0 0.205357 0 0 0 0.080899 0"/><feBlend in2="BackgroundImageFix" result="effect1_dropShadow_0_67"/><feBlend in="SourceGraphic" in2="effect1_dropShadow_0_67" result="shape"/></filter></defs></svg>