<svg width="270" height="416" viewBox="0 0 270 416" fill="none" xmlns="http://www.w3.org/2000/svg">
<path d="M0 160C0 103.995 0 75.9921 10.8993 54.6009C20.4867 35.7847 35.7847 20.4867 54.6009 10.8993C75.9921 0 103.995 0 160 0H231.6C245.041 0 251.762 0 256.896 2.61584C261.412 4.9168 265.083 8.58834 267.384 13.1042C270 18.2381 270 24.9587 270 38.4V377.6C270 391.041 270 397.762 267.384 402.896C265.083 407.412 261.412 411.083 256.896 413.384C251.762 416 245.041 416 231.6 416H38.4C24.9587 416 18.2381 416 13.1042 413.384C8.58834 411.083 4.9168 407.412 2.61584 402.896C0 397.762 0 391.041 0 377.6V160Z" fill="url(#paint0_linear_0_12)"/>
<defs>
<linearGradient id="paint0_linear_0_12" x1="0" y1="0" x2="0" y2="416" gradientUnits="userSpaceOnUse">
<stop stop-color="#F89C72"/>
<stop offset="1" stop-color="#EF633E"/>
</linearGradient>
</defs>
</svg>
