<svg width="64" height="64" fill="none" xmlns="http://www.w3.org/2000/svg"><g clip-path="url(#clip0_0_130)"><g filter="url(#filter0_d_0_130)"><path d="M32 64c17.673 0 32-14.327 32-32C64 14.327 49.673 0 32 0 14.327 0 0 14.327 0 32c0 17.673 14.327 32 32 32z" fill="url(#paint0_linear_0_130)"/></g><path d="M21.59 38.52c-.385 0-.713.2-.985.6h-.36v-4.56h.36c.304 1.536.784 2.624 1.44 3.264.656.64 1.552.968 2.688.984V35.4c-1.792-.816-2.952-1.544-3.48-2.184-.64-.768-.96-1.632-.96-2.592 0-1.232.424-2.176 1.272-2.832.864-.656 1.96-.984 3.288-.984h.096V25.32h.48v1.536c.288.032.768.136 1.44.312.688.176 1.152.264 1.392.264.256 0 .448-.048.576-.144.128-.096.216-.248.264-.456h.384v4.152h-.384c-.144-1.072-.552-1.936-1.224-2.592-.672-.656-1.488-1.032-2.448-1.128v3.552c.608.24 1.24.536 1.896.888.656.352 1.056.592 1.2.72.144.128.336.304.576.528.256.224.44.44.552.648.272.56.408 1.112.408 1.656 0 1.344-.448 2.336-1.344 2.976-.88.64-2.048.976-3.504 1.008v1.248h-.48V39.24a7.59 7.59 0 01-1.944-.384c-.688-.224-1.088-.336-1.2-.336zm1.487-9.936c0 .736.624 1.408 1.872 2.016v-3.36c-.544.016-.992.136-1.344.36-.352.224-.528.552-.528.984zm4.032 8.712c0-.32-.16-.6-.48-.84-.32-.256-.792-.536-1.416-.84v3.192c1.264-.096 1.896-.6 1.896-1.512zm12.018-2.616v-2.424c0-1.664-.12-2.832-.36-3.504-.24-.688-.64-1.032-1.2-1.032-.56 0-.96.344-1.2 1.032-.24.672-.36 1.84-.36 3.504s.112 2.816.336 3.456c.24.64.648.96 1.224.96.336 0 .68-.192 1.032-.576.352-.384.528-.856.528-1.416zm-6.384 5.976c0 .608.288 1.192.864 1.752.576.56 1.392.84 2.448.84 1.04 0 1.76-.296 2.16-.888.224-.32.4-.624.528-.912.128-.272.224-.664.288-1.176.064-.656.096-1.464.096-2.424V36.24h-.072c-.72.88-1.728 1.32-3.024 1.32a5.12 5.12 0 01-3.384-1.224c-.96-.832-1.44-2.032-1.44-3.6s.584-2.864 1.752-3.888c1.168-1.04 2.696-1.56 4.584-1.56 1.184 0 2.208.232 3.072.696.88.448 1.552 1.072 2.016 1.872.896 1.552 1.344 3.528 1.344 5.928 0 2.384-.584 4.328-1.752 5.832-1.152 1.504-2.92 2.256-5.304 2.256-1.44 0-2.568-.328-3.384-.984-.816-.64-1.224-1.408-1.224-2.304 0-.608.192-1.128.576-1.56.384-.432.872-.648 1.464-.648.608 0 1.088.192 1.44.576.368.368.552.808.552 1.32s-.152.936-.456 1.272c-.288.336-.672.504-1.152.504-.464 0-.832-.136-1.104-.408-.272-.256-.424-.6-.456-1.032-.032-.16-.104-.24-.216-.24-.144 0-.216.096-.216.288z" fill="#333"/></g><defs><linearGradient id="paint0_linear_0_130" x1="0" y1="0" x2="0" y2="64" gradientUnits="userSpaceOnUse"><stop stop-color="#E4FFFC"/><stop offset="1" stop-color="#C5FFF8"/></linearGradient><clipPath id="clip0_0_130"><path fill="#fff" d="M0 0h64v64H0z"/></clipPath><filter id="filter0_d_0_130" x="-24" y="-8" width="112" height="112" filterUnits="userSpaceOnUse" color-interpolation-filters="sRGB"><feFlood flood-opacity="0" result="BackgroundImageFix"/><feColorMatrix in="SourceAlpha" values="0 0 0 0 0 0 0 0 0 0 0 0 0 0 0 0 0 0 127 0" result="hardAlpha"/><feOffset dy="16"/><feGaussianBlur stdDeviation="12"/><feColorMatrix values="0 0 0 0 0 0 0 0 0 0.0941176 0 0 0 0 0.203922 0 0 0 0.08 0"/><feBlend in2="BackgroundImageFix" result="effect1_dropShadow_0_130"/><feBlend in="SourceGraphic" in2="effect1_dropShadow_0_130" result="shape"/></filter></defs></svg>