<svg width="114" height="17" fill="none" xmlns="http://www.w3.org/2000/svg"><path fill-rule="evenodd" clip-rule="evenodd" d="M17.984 6.47a.322.322 0 00-.26-.217l-5.829-.84L9.29.178a.322.322 0 00-.578 0L6.105 5.413l-5.829.84a.322.322 0 00-.26.217.317.317 0 00.081.327l4.218 4.075-.996 5.754a.322.322 0 00.467.337L9 14.246l5.213 2.717a.324.324 0 00.34-.024.318.318 0 00.128-.313l-.996-5.754 4.218-4.075a.317.317 0 00.081-.327zm24 0a.322.322 0 00-.26-.217l-5.829-.84L33.29.178a.322.322 0 00-.578 0l-2.606 5.235-5.829.84a.322.322 0 00-.26.217.317.317 0 00.081.327l4.218 4.075-.996 5.754a.322.322 0 00.467.337L33 14.246l5.213 2.717a.324.324 0 00.34-.024.318.318 0 00.128-.313l-.996-5.754 4.218-4.075a.317.317 0 00.081-.327zm24 0a.322.322 0 00-.26-.217l-5.829-.84L57.29.178a.322.322 0 00-.578 0l-2.606 5.235-5.829.84a.322.322 0 00-.26.217.317.317 0 00.081.327l4.218 4.075-.996 5.754a.322.322 0 00.467.337L57 14.246l5.213 2.717a.324.324 0 00.34-.024.318.318 0 00.128-.313l-.996-5.754 4.218-4.075a.317.317 0 00.081-.327zm24 0a.322.322 0 00-.26-.217l-5.829-.84L81.29.178a.322.322 0 00-.578 0l-2.606 5.235-5.829.84a.322.322 0 00-.26.217.317.317 0 00.081.327l4.218 4.075-.996 5.754a.322.322 0 00.467.337L81 14.246l5.213 2.717a.324.324 0 00.34-.024.318.318 0 00.128-.313l-.996-5.754 4.218-4.075a.317.317 0 00.081-.327z" fill="#5DC4B8"/><path fill-rule="evenodd" clip-rule="evenodd" d="M113.984 6.47a.322.322 0 00-.26-.217l-5.829-.84-2.606-5.235a.323.323 0 00-.578 0l-2.606 5.235-5.829.84a.322.322 0 00-.26.217.317.317 0 00.081.327l4.218 4.075-.996 5.754a.322.322 0 00.467.337L105 14.246l5.213 2.717a.325.325 0 00.34-.024.318.318 0 00.128-.313l-.996-5.754 4.218-4.075a.317.317 0 00.081-.327z" fill="#DCDCDC"/></svg>